<?xml version="1.0" encoding="UTF-8"?>
<svg id="Layer_1" xmlns="http://www.w3.org/2000/svg" version="1.1" viewBox="0 0 1920 1080">
  <!-- Generator: Adobe Illustrator 29.8.1, SVG Export Plug-In . SVG Version: 2.1.1 Build 2)  -->
  <path fill="#ffffff" d="M729.93,1005.26l10.49-43.46c.43,0,1.08.03,1.95.08s1.5.11,1.88.16c3.11.37,5.4,1.23,6.88,2.57,1.48,1.34,2.37,2.93,2.66,4.76.3,1.83.22,3.66-.22,5.49-.36,1.51-1.13,3.07-2.3,4.68-1.17,1.61-2.62,3.04-4.35,4.31,1.6,1.05,2.7,2.37,3.3,3.96.6,1.59.66,3.42.16,5.48-.43,1.78-1.25,3.54-2.46,5.28-1.21,1.74-2.91,3.22-5.1,4.44-2.19,1.22-4.97,1.93-8.34,2.15-.27.02-.72.04-1.33.05-.62.02-1.24.03-1.86.04-.62,0-1.08.01-1.36.01ZM736.04,1000.19c2.06,0,3.97-.6,5.73-1.81,1.76-1.21,2.9-2.91,3.43-5.09.31-1.3.3-2.48-.05-3.56-.34-1.08-1-1.91-1.97-2.49-.97-.59-2.26-.79-3.87-.61l-3.27,13.57ZM740.32,982.43c1.04.18,2.16-.1,3.35-.83,1.19-.73,2.27-1.73,3.23-3s1.62-2.63,1.97-4.07c.45-1.85.44-3.32-.02-4.43-.46-1.1-1.15-1.9-2.06-2.4-.91-.5-1.82-.75-2.73-.75l-3.73,15.46Z"/>
  <path fill="#ffffff" d="M766.48,1004.78l3.49-14.48-2.2-28.02h5.44l1,20.96h.05l11.14-20.96h5.44l-15.85,28.21-3.45,14.29h-5.07Z"/>
  <path fill="#ffffff" d="M812.42,1011.76l-1.97-3.12c1.99-1.16,3.58-2.65,4.79-4.48,1.21-1.83,2.05-3.74,2.53-5.73l8.72-36.13h4.99l-8.65,35.86c-.44,1.83-1.02,3.58-1.75,5.25-.72,1.67-1.76,3.21-3.12,4.62-1.35,1.41-3.2,2.65-5.54,3.72Z"/>
  <path fill="#ffffff" d="M841.82,997.71l-3.54,7.07h-5.25l23.06-43.75h.16l1.95,43.75h-5.25l-.14-7.07h-10.99ZM852.85,974.97h-.05l-2.48,5.87-6.26,12.45h8.66l-.22-12.45.35-5.87Z"/>
  <path fill="#ffffff" d="M870.41,1004.78l10.56-43.78h.51l6.43,23.09h.05l17.57-23.09h.51l-10.56,43.78h-5.07l4.72-19.57,2.03-6.64h-.05l-4.64,6.32-6.73,8.43h-.03l-2.71-8.45-1.6-6.29h-.05l-1.14,6.59-4.74,19.62h-5.07Z"/>
  <path fill="#ffffff" d="M911.53,1004.78l10.25-42.47h14.58l-1.13,4.69h-9.52l-3.94,16.32h8.16l-1.13,4.69h-8.16l-2.91,12.08h9.52l-1.13,4.69h-14.59Z"/>
  <path fill="#ffffff" d="M946.47,1005.28c-1.6,0-3.07-.23-4.4-.69-1.34-.46-2.45-1.05-3.32-1.76l3.39-4.42c.77.5,1.59.96,2.47,1.37.88.42,1.89.63,3.05.63,1.42,0,2.77-.4,4.04-1.2,1.27-.8,2.11-2.07,2.53-3.81.28-1.17.26-2.45-.08-3.83-.33-1.38-1.09-3.12-2.28-5.21l-2.44-4.35c-1.22-2.17-1.98-4.14-2.28-5.91-.3-1.77-.26-3.44.12-5.03.64-2.67,2.03-4.87,4.16-6.62,2.13-1.75,4.7-2.63,7.7-2.63,1.21,0,2.38.16,3.53.47,1.14.31,2.21.8,3.2,1.48l-3.18,4.13c-.55-.37-1.16-.7-1.82-.97-.66-.28-1.44-.41-2.33-.41-1.48,0-2.76.42-3.86,1.25-1.1.84-1.83,2-2.19,3.49-.2.82-.21,1.71-.05,2.69.17.98.66,2.25,1.49,3.81l3.51,6.56c.9,1.71,1.62,3.36,2.15,4.97.53,1.61.53,3.51,0,5.69-.51,2.13-1.42,3.97-2.7,5.51-1.29,1.54-2.83,2.72-4.62,3.55-1.79.83-3.72,1.24-5.78,1.24Z"/>
  <path fill="#ffffff" d="M1003.73,1005.28c-2.33,0-4.3-.72-5.92-2.17s-2.63-3.76-3.06-6.95c-.42-3.18,0-7.39,1.26-12.61,1.28-5.31,2.9-9.56,4.86-12.74,1.96-3.18,4.09-5.47,6.39-6.88,2.3-1.4,4.62-2.11,6.95-2.11.99,0,1.9.09,2.71.27.81.18,1.61.45,2.39.83l-2.18,4.16c-.3-.14-.82-.25-1.56-.33s-1.34-.12-1.82-.12c-1.51,0-3.05.56-4.62,1.67-1.57,1.11-3.04,2.91-4.43,5.39-1.39,2.48-2.58,5.77-3.57,9.88-.99,4.09-1.38,7.37-1.19,9.85.19,2.48.8,4.28,1.83,5.39,1.03,1.11,2.3,1.67,3.81,1.67.48,0,1.02-.04,1.62-.12.6-.08,1.08-.19,1.45-.33l.7,4.19c-.96.37-1.89.65-2.79.83-.9.18-1.84.27-2.84.27Z"/>
  <path fill="#ffffff" d="M1023.34,1005.26c-1.12,0-1.93-.36-2.44-1.07s-.64-1.54-.42-2.48c.23-.94.77-1.77,1.62-2.49.85-.72,1.83-1.08,2.95-1.08s1.93.36,2.43,1.08c.5.72.64,1.55.41,2.49-.23.94-.76,1.77-1.61,2.48-.85.71-1.83,1.07-2.95,1.07Z"/>
  <path fill="#ffffff" d="M1062.53,1004.78l10.25-42.47h5.07l-10.25,42.47h-5.07ZM1078.58,1004.78l-6.23-19.7,15.41-22.77h5.44l-15.24,22.16,6.46,20.32h-5.84Z"/>
  <path fill="#ffffff" d="M1102.34,997.71l-3.54,7.07h-5.25l23.06-43.75h.16l1.95,43.75h-5.25l-.14-7.07h-10.99ZM1113.37,974.97h-.05l-2.48,5.87-6.26,12.45h8.66l-.22-12.45.35-5.87Z"/>
  <path fill="#ffffff" d="M1130.93,1004.78l10.56-43.78h.16l7.9,21.94,2.12,7.04,1.01-6.96,5-20.72h5.01l-10.44,43.27h-.16l-7.91-22.02-2.25-6.24-.81,6.24-5.12,21.22h-5.07Z"/>
  <path fill="#ffffff" d="M1168.43,1004.78l10.25-42.47h14.58l-1.13,4.69h-9.52l-3.94,16.32h8.16l-1.13,4.69h-8.16l-2.91,12.08h9.52l-1.13,4.69h-14.58Z"/>
</svg>