<?xml version="1.0" encoding="UTF-8"?>
<svg id="Layer_1" xmlns="http://www.w3.org/2000/svg" version="1.1" viewBox="750 420 420 250">
  <!-- Generator: Adobe Illustrator 29.8.1, SVG Export Plug-In . SVG Version: 2.1.1 Build 2)  -->
  <g>
    <path fill="#ffffff" d="M1169.28,568.88v-11.19c-2.32,2.89-5.62,4.45-9.51,4.45h-10.08l-.11-1.48c-.34-4.63-.69-10.21-.76-16.44l-.02-1.77,16.09,1.5v-8.8l-16.08,1.5.02-1.77c.07-6.5.41-13.66.76-20.45l.08-1.51h10.11c3.89,0,7.18,1.56,9.51,4.46v-11.2h-32.27v6.48h1.2l.11,1.47c1.23,15.72,1.04,34.14-.55,54.76h31.51Z"/>
    <path fill="#ffffff" d="M1056.9,505.29c-7.42,0-19.89,4.19-20.06,32.24-.08,12.1,2.91,21.81,8.42,27.35,3.21,3.23,7.13,4.87,11.64,4.87s8.43-1.64,11.64-4.87c5.51-5.54,8.5-15.25,8.42-27.36-.17-28.05-12.64-32.24-20.06-32.24ZM1056.9,563.28c-8.29,0-9.25-14.7-9.25-25.76s.96-25.76,9.25-25.76,9.25,14.7,9.25,25.76-.96,25.76-9.25,25.76Z"/>
    <path fill="#ffffff" d="M1025.89,561.82l-1.86-3.9c-2.7,3.73-6.4,5.89-10.31,5.89-8.35,0-12.96-9.33-12.96-26.29s5.28-25.83,14.11-26.02c3.63-.09,7.04,2.01,9.55,5.74v-12.39c-2.42.5-4.5.79-7.44.79-1.43,0-3.1-.12-5.03-.26l-1.42-.1c-.6-.05-1.19-.08-1.76-.08-4.09,0-7.56,1.28-10.34,3.83-5.47,4.99-8.39,14.85-8.47,28.49-.07,12.31,2.72,21.66,8.07,27.04,3.42,3.44,7.84,5.19,13.12,5.19,5.79,0,11.02-2.42,14.72-6.81.18-.21.22-.67.02-1.12Z"/>
    <path fill="#ffffff" d="M1123.15,568.88v-11.19c-2.32,2.89-5.62,4.45-9.51,4.45h-10.07l-.11-1.47c-1.16-14.85-1.02-31.71.45-54.5h-13.02v6.48h1.2l.11,1.47c1.23,15.72,1.04,34.14-.55,54.76h31.51Z"/>
    <path fill="#ffffff" d="M905.44,517.37v-11.2h-32.27v6.48h1.2l.11,1.47c1.23,15.72,1.04,34.14-.55,54.76h13v-6.48h-1.06l-.12-1.46c-.45-5.37-.7-10.84-.76-16.72l-.02-1.77,16.09,1.5v-8.8l-16.08,1.5.02-1.77c.07-6.5.41-13.66.76-20.45l.08-1.51h10.11c3.89,0,7.18,1.56,9.51,4.46Z"/>
    <path fill="#ffffff" d="M951.57,517.37v-11.2h-32.27v6.48h1.2l.11,1.47c1.23,15.72,1.04,34.14-.55,54.76h13v-6.48h-1.06l-.12-1.46c-.45-5.37-.7-10.84-.76-16.72l-.02-1.77,16.09,1.5v-8.8l-16.08,1.5.02-1.77c.07-6.5.41-13.66.76-20.45l.08-1.51h10.11c3.89,0,7.18,1.56,9.51,4.46Z"/>
    <path fill="#ffffff" d="M832.32,568.88v-11.19c-2.32,2.89-5.62,4.45-9.51,4.45h-10.07l-.11-1.47c-1.16-14.85-1.02-31.71.45-54.5h-13.02v6.48h1.2l.11,1.47c1.23,15.72,1.04,34.14-.55,54.76h31.51Z"/>
    <path fill="#ffffff" d="M786.65,561.82l-1.86-3.9c-2.7,3.73-6.4,5.89-10.31,5.89-8.35,0-12.96-9.33-12.96-26.29s5.28-25.83,14.11-26.02c3.63-.09,7.04,2.01,9.55,5.74v-12.39c-2.42.5-4.5.79-7.44.79-1.43,0-3.1-.12-5.03-.26l-1.42-.1c-.6-.05-1.19-.08-1.76-.08-4.09,0-7.56,1.28-10.34,3.83-5.47,4.99-8.39,14.85-8.47,28.49-.07,12.31,2.72,21.66,8.06,27.04,3.42,3.44,7.84,5.19,13.12,5.19,5.79,0,11.02-2.42,14.72-6.81.18-.21.22-.67.02-1.12Z"/>
    <path fill="#ffffff" d="M859.31,568.88v-6.48h-1.07l-.11-1.47c-1.15-14.89-1.02-31.84.45-54.76h-13.02v6.48h1.2l.11,1.47c1.23,15.73,1.04,34.15-.55,54.76h13Z"/>
  </g>
  <g>
    <path fill="#ffffff" d="M811.65,451.27l7.2-25.67,8.69,2.44-.8,2.85-5.71-1.6-3.04,10.85,4.92,1.38-.79,2.83-4.92-1.38-2.56,9.13-2.97-.83Z"/>
    <path fill="#ffffff" d="M828.73,455.86l6.19-26.26c2.49.47,4.46,1.27,5.89,2.39,1.43,1.12,2.37,2.46,2.83,4.03.46,1.57.47,3.28.03,5.14-.38,1.61-1.01,2.97-1.89,4.1s-2.01,1.94-3.39,2.44l2.13,10.95-3.39-.8-1.61-9.61c-.57.03-1.18,0-1.81-.07l-1.98,8.4-3.01-.71ZM834.45,445.1c1.41.21,2.67-.06,3.79-.8,1.12-.74,1.89-2.03,2.33-3.88.43-1.85.32-3.35-.35-4.51-.67-1.16-1.68-1.96-3.03-2.41l-2.73,11.59Z"/>
    <path fill="#ffffff" d="M855.19,461.93c-.77-.14-1.53-.49-2.28-1.04-.75-.55-1.39-1.37-1.91-2.48s-.84-2.58-.94-4.4c-.11-1.82.1-4.09.61-6.81.51-2.72,1.15-4.91,1.92-6.56.77-1.66,1.6-2.91,2.49-3.75.89-.84,1.79-1.38,2.69-1.61.9-.23,1.73-.28,2.5-.13.78.15,1.54.49,2.29,1.04.75.55,1.39,1.37,1.91,2.48.52,1.11.84,2.58.94,4.4.11,1.82-.1,4.1-.61,6.81-.51,2.72-1.15,4.91-1.92,6.56-.77,1.66-1.6,2.91-2.49,3.75-.89.84-1.79,1.38-2.69,1.61-.9.23-1.74.28-2.51.13ZM855.76,458.9c.62.12,1.29-.08,2.01-.58.72-.5,1.42-1.48,2.11-2.91.69-1.44,1.28-3.48,1.78-6.13.5-2.66.7-4.78.59-6.37-.11-1.58-.41-2.74-.9-3.47-.48-.73-1.04-1.16-1.65-1.27-.61-.12-1.27.08-1.99.58-.72.51-1.42,1.47-2.11,2.9-.68,1.43-1.28,3.48-1.78,6.14-.5,2.65-.7,4.77-.58,6.36.11,1.59.41,2.75.9,3.48.48.73,1.03,1.16,1.64,1.27Z"/>
    <path fill="#ffffff" d="M871.94,464.55l3.84-27.19.31.04,5.22,15.37h.03s9.27-13.31,9.27-13.31l.31.04-3.84,27.19-3.06-.43,1.72-12.16.84-4.09h-.03s-2.44,3.65-2.44,3.65l-3.57,4.83h-.02s-2.12-5.66-2.12-5.66l-1.33-4.17h-.03s-.3,4.12-.3,4.12l-1.72,12.19-3.06-.43Z"/>
    <path fill="#ffffff" d="M912.64,469.29l1.84-23.63-4.13-.32.23-2.93,11.35.89-.23,2.93-4.13-.32-1.84,23.63-3.08-.24Z"/>
    <path fill="#ffffff" d="M928.19,470.36l1.16-26.62,3.09.13-.64,14.77,5.82.25.64-14.77,3.09.13-1.15,26.62-3.09-.13.39-8.91-5.81-.25-.39,8.91-3.09-.13Z"/>
    <path fill="#ffffff" d="M950.42,471.12l.24-26.64,8.89.08-.03,2.94-5.8-.05-.09,10.24,4.97.05-.03,2.94-4.97-.05-.07,7.58,5.8.05-.03,2.94-8.89-.08Z"/>
    <path fill="#ffffff" d="M981.7,470.8l-1.13-26.64,9.02-.38.13,2.96-5.93.25.48,11.26,5.1-.22.13,2.94-5.1.22.4,9.47-3.09.13Z"/>
    <path fill="#ffffff" d="M999.24,469.89l-1.84-26.58,3.08-.21,1.84,26.58-3.08.21Z"/>
    <path fill="#ffffff" d="M1012.5,468.86l-2.57-26.52,3.07-.3,2.29,23.62,6.78-.66.28,2.9-9.86.96Z"/>
    <path fill="#ffffff" d="M1030.07,467.01l-3.42-26.42,8.82-1.14.38,2.92-5.76.74,1.31,10.15,4.93-.64.38,2.92-4.93.64.97,7.51,5.76-.75.38,2.92-8.82,1.14Z"/>
    <path fill="#ffffff" d="M1051.8,464.22c-.96.16-1.9.17-2.82.02-.92-.14-1.73-.38-2.43-.72l.94-2.97c.59.22,1.19.41,1.82.57s1.29.18,1.99.07c.85-.14,1.57-.51,2.13-1.11.56-.6.76-1.44.58-2.52-.12-.73-.45-1.48-.99-2.27-.54-.79-1.43-1.75-2.66-2.88l-2.54-2.34c-1.27-1.17-2.21-2.27-2.83-3.29-.62-1.02-1.01-2.02-1.17-3-.27-1.65.02-3.1.87-4.36.85-1.25,2.18-2.03,3.98-2.32.73-.12,1.47-.14,2.24-.07.76.07,1.53.26,2.29.56l-.89,2.77c-.42-.17-.87-.3-1.33-.4s-.97-.1-1.5-.02c-.89.15-1.56.52-2.01,1.13-.46.61-.61,1.37-.45,2.3.08.51.3,1.04.64,1.61.34.57.95,1.27,1.84,2.12l3.73,3.56c.97.93,1.81,1.84,2.52,2.75.72.91,1.18,2.03,1.41,3.39.22,1.32.13,2.5-.27,3.54s-1.03,1.9-1.9,2.57c-.87.67-1.93,1.11-3.17,1.31Z"/>
    <path fill="#ffffff" d="M1086.49,457.32c-.76.18-1.59.17-2.5-.02s-1.83-.69-2.76-1.49c-.93-.8-1.81-2.01-2.66-3.63-.84-1.62-1.58-3.78-2.22-6.47-.64-2.69-.94-4.95-.92-6.78.02-1.83.27-3.31.75-4.44.47-1.13,1.07-1.99,1.8-2.56.73-.58,1.47-.96,2.23-1.14.77-.18,1.61-.18,2.52.01.91.19,1.83.69,2.76,1.49.93.8,1.82,2.01,2.66,3.63.84,1.62,1.58,3.78,2.22,6.47.64,2.69.94,4.95.92,6.78-.02,1.83-.27,3.31-.75,4.44-.47,1.13-1.07,1.99-1.8,2.57-.73.58-1.47.96-2.24,1.14ZM1085.78,454.32c.61-.14,1.14-.59,1.59-1.35.45-.75.7-1.93.74-3.52.04-1.59-.25-3.7-.87-6.33-.62-2.64-1.31-4.65-2.06-6.05-.75-1.4-1.49-2.33-2.23-2.81-.74-.47-1.42-.64-2.03-.49-.6.14-1.13.59-1.58,1.34-.45.75-.7,1.92-.74,3.51-.04,1.59.25,3.7.87,6.33.62,2.63,1.31,4.64,2.06,6.05.75,1.4,1.5,2.34,2.24,2.81.74.47,1.41.64,2.01.5Z"/>
    <path fill="#ffffff" d="M1102.82,452.83l-7.29-25.64,8.68-2.47.81,2.85-5.71,1.62,3.08,10.84,4.91-1.4.81,2.83-4.91,1.4,2.59,9.12-2.97.84Z"/>
  </g>
  <g>
    <path fill="#ffffff" d="M830.85,652.8c-1.84.46-3.68.3-5.52-.48-1.85-.79-3.56-2.35-5.15-4.69-1.59-2.34-2.92-5.64-3.99-9.87-1.09-4.31-1.48-7.87-1.2-10.69.29-2.82,1.06-4.99,2.33-6.52,1.26-1.53,2.81-2.53,4.65-2.99.78-.2,1.53-.31,2.24-.33.71-.03,1.44.03,2.21.16l-.07,3.61c-.3-.05-.75-.03-1.36.06-.61.09-1.11.18-1.49.27-1.19.3-2.18,1.03-2.98,2.19-.8,1.16-1.25,2.82-1.37,4.99-.12,2.17.24,4.92,1.08,8.25.84,3.32,1.82,5.9,2.95,7.75,1.13,1.85,2.32,3.1,3.57,3.75s2.47.81,3.66.51c.38-.1.79-.23,1.23-.41.44-.18.78-.36,1.01-.54l2.2,3.06c-.61.48-1.23.87-1.87,1.18-.64.31-1.35.57-2.13.77Z"/>
    <path fill="#ffffff" d="M852.16,648.14c-1.02.2-2.13.15-3.33-.15-1.2-.3-2.4-1.01-3.6-2.12-1.2-1.11-2.32-2.77-3.35-4.98-1.04-2.2-1.91-5.12-2.62-8.74-.71-3.62-1-6.64-.88-9.08.13-2.43.53-4.39,1.22-5.88.69-1.48,1.53-2.59,2.53-3.32,1-.73,2.01-1.2,3.03-1.4,1.04-.2,2.15-.15,3.35.15,1.2.3,2.4,1.01,3.6,2.12,1.2,1.11,2.31,2.77,3.35,4.98,1.04,2.21,1.91,5.12,2.62,8.74.71,3.62,1,6.64.87,9.08s-.53,4.39-1.22,5.88c-.69,1.48-1.53,2.59-2.53,3.33-1,.73-2.01,1.2-3.05,1.4ZM851.37,644.12c.82-.16,1.55-.73,2.19-1.71.64-.98,1.03-2.53,1.17-4.65.14-2.12-.14-4.94-.83-8.47-.7-3.54-1.51-6.27-2.43-8.17-.93-1.9-1.87-3.19-2.83-3.85-.96-.67-1.86-.92-2.68-.76-.81.16-1.53.73-2.17,1.71-.64.98-1.03,2.53-1.17,4.64s.14,4.94.84,8.48c.69,3.53,1.5,6.25,2.43,8.16.93,1.91,1.87,3.2,2.83,3.86.96.67,1.85.92,2.66.76Z"/>
    <path fill="#ffffff" d="M872.91,644.01l-4.99-36.28.13-.02,13.13,16.72,3.87,5.41-1.33-5.69-2.36-17.17,4.04-.56,4.93,35.86-.13.02-13.16-16.78-3.74-4.75,1.27,5.09,2.42,17.59-4.08.56Z"/>
    <path fill="#ffffff" d="M902.78,640.3l-3.17-35.4,11.98-1.07.35,3.93-7.88.71,1.34,14.97,6.78-.61.35,3.91-6.78.61,1.13,12.59-4.1.37Z"/>
    <path fill="#ffffff" d="M925.32,638.56l-1.95-35.47,4.11-.23,1.95,35.47-4.11.23Z"/>
    <path fill="#ffffff" d="M942.19,638.2l-.65-36.34c1.39.03,2.73.17,4.02.4,2.54.43,4.72,1.41,6.55,2.94,1.83,1.53,3.25,3.51,4.26,5.95,1.01,2.44,1.55,5.23,1.6,8.38.06,3.12-.33,5.93-1.16,8.42-.83,2.49-2.12,4.56-3.86,6.2-1.74,1.64-3.94,2.76-6.61,3.34-.66.15-1.34.29-2.02.43-.68.14-1.39.24-2.13.29ZM946.23,633.53c1.27-.35,2.48-1.02,3.65-2.02,1.17-.99,2.12-2.45,2.86-4.37.74-1.92,1.08-4.44,1.03-7.56-.05-3.08-.49-5.54-1.29-7.39-.81-1.85-1.81-3.23-3.01-4.13-1.2-.9-2.44-1.47-3.72-1.7l.48,27.16Z"/>
    <path fill="#ffffff" d="M969.16,637.6l.87-35.51,11.85.29-.1,3.92-7.74-.19-.33,13.64,6.63.16-.1,3.92-6.63-.16-.25,10.1,7.74.19-.1,3.92-11.85-.29Z"/>
    <path fill="#ffffff" d="M992.27,638.36l2.54-36.53h.13s9.43,19.06,9.43,19.06l2.68,6.09-.14-5.84,1.2-17.29,4.07.28-2.51,36.11h-.13s-9.45-19.13-9.45-19.13l-2.69-5.42.2,5.24-1.23,17.71-4.11-.29Z"/>
    <path fill="#ffffff" d="M1025.22,641.17l3.66-31.39-5.49-.64.45-3.9,15.07,1.76-.46,3.9-5.49-.64-3.66,31.39-4.09-.48Z"/>
    <path fill="#ffffff" d="M1044.92,643.75l5.4-35.11,4.07.63-5.4,35.11-4.07-.63Z"/>
    <path fill="#ffffff" d="M1065.41,641.21l-2.61,5.51-4.19-.83,17.07-33.93.13.03,2.88,37.87-4.19-.83-.32-6.09-8.76-1.73ZM1073.52,623.42h-.04s-1.8,4.64-1.8,4.64l-4.61,9.7,6.91,1.37-.55-10.73.1-4.98Z"/>
    <path fill="#ffffff" d="M1087.95,652.06l8.69-34.45,3.99,1.01-7.74,30.68,8.81,2.22-.95,3.76-12.8-3.23Z"/>
  </g>
</svg>