<?xml version="1.0" encoding="UTF-8"?>
<svg id="Layer_1" xmlns="http://www.w3.org/2000/svg" xmlns:xlink="http://www.w3.org/1999/xlink" version="1.1" viewBox="200 200 2050 2050">
  <!-- Generator: Adobe Illustrator 29.8.1, SVG Export Plug-In . SVG Version: 2.1.1 Build 2)  -->
  <defs>
    <style>
      .st0 {
        fill: none;
      }

      .st1 {
        stroke: #000;
        stroke-miterlimit: 10;
        stroke-width: 16px;
      }

      .st1, .st2 {
        fill: #dfdcdb;
      }

      .st3 {
        fill: #fff;
      }

      .st4 {
        clip-path: url(#clippath);
      }
    </style>
    <clipPath id="clippath">
      <path class="st0" d="M2095.08,623.43c-161.41-8.92-293.88-137.06-308.14-298.07-.49-5.57-5.16-9.84-10.75-9.84H677.23c-5.59,0-10.26,4.27-10.75,9.84-15.07,170.24-155.45,298.61-326.52,298.61-5.96,0-10.79,4.83-10.79,10.79v1155.72c0,5.96,4.83,10.79,10.79,10.79,167.79,0,307.91,125.63,325.93,292.23.59,5.48,5.22,9.63,10.73,9.63h1100.18c5.51,0,10.14-4.15,10.73-9.63,17.32-160.13,146.66-282.8,307.55-291.69,5.72-.32,10.2-5.05,10.2-10.78V634.21c0-5.73-4.48-10.46-10.2-10.78Z"/>
    </clipPath>
  </defs>
  <g>
    <g>
      <path class="st1" d="M2095.08,623.43c-161.41-8.92-293.88-137.06-308.14-298.07-.49-5.57-5.16-9.84-10.75-9.84H677.23c-5.59,0-10.26,4.27-10.75,9.84-15.07,170.24-155.45,298.61-326.52,298.61-5.96,0-10.79,4.83-10.79,10.79v1155.72c0,5.96,4.83,10.79,10.79,10.79,167.79,0,307.91,125.63,325.93,292.23.59,5.48,5.22,9.63,10.73,9.63h1100.18c5.51,0,10.14-4.15,10.73-9.63,17.32-160.13,146.66-282.8,307.55-291.69,5.72-.32,10.2-5.05,10.2-10.78V634.21c0-5.73-4.48-10.46-10.2-10.78Z"/>
      <path d="M1766.45,337.11c19.23,163.58,153.12,293.2,317.24,307.16v1136.7c-163.51,13.72-294.39,137.99-316.44,300.58H686.18c-23-169.21-164.64-296.53-335.43-301.7V645.4c174.14-5.17,316.13-135.31,336.23-308.28h1079.47M1776.19,315.53H677.23c-5.59,0-10.26,4.27-10.75,9.84-15.07,170.24-155.45,298.61-326.52,298.61-5.96,0-10.79,4.83-10.79,10.79v1155.72c0,5.96,4.83,10.79,10.79,10.79,167.79,0,307.91,125.63,325.93,292.23.59,5.48,5.22,9.63,10.73,9.63h1100.18c5.51,0,10.14-4.15,10.73-9.63,17.32-160.13,146.66-282.8,307.55-291.69,5.72-.32,10.2-5.05,10.2-10.78V634.21c0-5.73-4.48-10.46-10.2-10.78-161.41-8.92-293.88-137.06-308.14-298.07-.49-5.57-5.16-9.84-10.75-9.84h0Z"/>
    </g>
    <g class="st4">
      <g>
        <path d="M-265.3,3421.42c5.77-16.29-8.97-15.36-10.9-21.2-5.36-16.23,5.95-59.58,7.17-79.04,3.32-53.05,1.32-109.38,3.68-162.84,7.52-169.89,27.73-339.21,48.9-507.43,11.06-87.95,16.55-240.81,72.3-309.94,34.23-42.44,79.91-60.84,125.01-86.92,126.88-73.36,258.72-138.3,389.01-205.3,44.49-22.88,103.65-44.92,147.7-71.63,14.56-8.83,20.46-12.05,13.81-31.75-14.05-10.37-28.09-22.22-40.79-34.09-17.42-16.28-40.74-30.07-32.39-57.89,1.68-5.59,8.12-7.79,10.85-11.94s2.7-8.98,5-12.07c8.59-11.52,28.88-16.2,11.78-39.07-.6-.8-13.56-13.29-14.39-13.84-12.92-8.46-41.56-21.54-56.73-28.51-79.14-36.38-167.33-63.44-253.76-71.69-8.45-2.59-7.66-15.52-4.27-22.23,4.76-9.42,53.05-47.66,64.39-56.69,127.13-101.34,278.98-192.57,436.07-237.55,30.07-8.61,72.43-12.61,100.34-24.54,4.76-2.04,16.12-12.34,17.44-16.84-3.8-32.32-20.05-63.45-28.96-94.72-1.49-5.24-.27-11.43-1.71-17.2-1.21-4.85-6.98-7.48-7.05-15.96-.02-2.94,7.62-26.71,8.65-27.74,5.68-5.69,30.96-7.23,39.16-8.14,24.24-2.7,1.1-27.43,5.53-45.56-19.42,4.49-34.68-4.62-51.31-7.34-102.09-16.69-218.92-43.64-314.68-86.47-8.11-3.63-14.79-9.73-23.21-12.68-10.86-15.76,31.99-34.95,43.39-40.65,63.66-31.84,154.48-61.56,223.78-78.97,16.73-4.2,82.3-12.81,89.81-19.94,20.57-19.52,14.25-50.48,17.32-73.5.97-7.28,5.39-13.47,6.51-19.98,12.71-74.36,22.23-149.26,37.78-223.35,5.82-27.75,12.58-78.42,31.04-100.46,3.23-3.85,8.3-4.65,11.51-8.24,46.19-51.63,123.07-93.3,181.32-132.91,34.82-23.68,66.31-54.52,106.52-71.34,6.65-2.78,28.66-9.62,35.51-10,26.06-1.45,80.22,23.03,104.32,36.14,98.33,53.5,175.1,134.84,245.94,219.54,19.44,23.25,47.58,53.36,55.93,84.1,1.82,6.71.1,14.15,1.62,21.09,12.32,56.53,21.03,113.51,29.51,171.07,3.36,22.77-3.63,28.32,22.94,41.4,13.61,6.7,29.1,7.19,42.42,10.56,81.1,20.51,168.73,42.47,247.74,66.37,13.98,4.23,57.37,15.33,63.36,27.44,15.09,30.49-43.87,39.04-58.94,54.56-89.34,28.85-177.56,81.94-267.3,107.35-8.13,2.3-17.68-1.81-24.09,6.19s-3.04,30.34-3.41,41.98c-.24,7.55-9.8,24.45,4.7,23.87,22.62-.91,49.99-19.93,55.63,17.87,4.99,33.41-15.98,76.92-21.73,110.42-1.53,8.94-1.25,18.27-.51,27.25,73.25,24.25,143.42,56.86,211.15,93.48,106.74,57.71,251.86,135.98,344.53,211.78,9.25,7.56,20.99,15.47,10.53,27.06-13.21,14.64-40,6.04-57.42,8.73-50.63,7.81-99.04,21.96-148.65,36.79-14.33,4.28-35.75-1.97-30.65,23.11,21.43,8.88,36.87,27.77,54.33,42.11,8.7,7.15,48.52,26.71,31.26,40.88-3.11,2.55-34.75,13.14-44.1,18.27-46.31,25.43-95.33,69.18-126.92,111.5-12.1,16.21-20.04,31.57-2.43,47.24,71.51,37.23,137.74,82.74,209.25,119.28,115.77,59.14,238.16,117.61,362.49,164.25,113.17,42.46,211.02,49.15,252.43,182.78,14.22,45.89,15.76,92.7,23.81,138.92,24.81,142.54,48.39,288.04,67.82,431.73,13.63,100.81,1.83,215.6,7.76,317.71,1.08,18.62,6.87,41.59,7.8,60.32.37,7.45,1.88,39.92-5.86,39.92H764.04l-5.68,15.14H-265.3Z"/>
        <path d="M-1317.17,1542.33c23.15,0,23.19-35.98,0-35.98s-23.19,35.98,0,35.98h0Z"/>
        <g>
          <path d="M1017.67,1124.99c-12.33,6.19-49.92-3.65-38.77,18.19,4.15,8.13,31.87,30.1,40.99,34.7,56.43,28.45,109.06,14.2,135.05-44.16-1.18-5.64-33.04-10.61-39.64-9.62-9.75,1.46-20.65,19.88-32.39,24.56-21.85,8.7-46.4-6.57-60.51-22.77l-4.74-.91Z"/>
          <path class="st3" d="M1118.35,1123.98c-5.94,23.36-27.11,40.63-52.31,40.63s-46.37-17.28-52.31-40.63h-31.85c6.4,40.72,41.64,71.86,84.16,71.86s77.75-31.14,84.16-71.86h-31.85Z"/>
          <path class="st3" d="M1461.48,1123.98c-5.94,23.36-27.11,40.63-52.31,40.63s-46.37-17.28-52.31-40.63h-31.85c6.4,40.72,41.64,71.86,84.16,71.86s77.75-31.14,84.16-71.86h-31.85Z"/>
        </g>
      </g>
      <rect x="127.64" y="1613.18" width="2691.37" height="967.68"/>
    </g>
    <g>
      <path class="st2" d="M1858.35,2219.79c-63.16,0-63.16-1.86-126.32-1.86-63.15,0-63.15-2.32-126.3-2.32-63.16,0-63.16,3.46-126.31,3.46-63.16,0-63.16.85-126.31.85-63.16,0-63.16-1.81-126.33-1.81-63.15,0-63.15.63-126.29.63-63.17,0-63.17-1.5-126.34-1.5-63.17,0-63.17-.57-126.34-.57-63.18,0-63.18,3.37-126.36,3.37-63.18,0-63.18-3.66-126.36-3.66-5.9,0-11.32-3.04-11.41-8.94-.68-43.8-8.06-86.22-24.54-124.34-16.99-39.31-42.81-74.18-72.94-103.85-30.13-29.67-66.45-52.4-106.02-68.78-38.37-15.88-79.85-26.23-123.66-26.23-5.81,0-11.87.75-18.52,1.13-3,.08-6.67-.13-8.83-2.18-2.16-2.04-4.18-5.73-4.18-8.69,0-66.18,3.38-66.18,3.38-132.36,0-66.17-.92-66.17-.92-132.34,0-66.18-.9-66.18-.9-132.36,0-66.18-.46-66.18-.46-132.36,0-66.19-1.92-66.19-1.92-132.38,0-66.17,3.51-66.17,3.51-132.34,0-66.19.44-66.19.44-132.39,0-66.2-1.62-66.2-1.62-132.39,0-66.2,1.49-66.2,1.49-132.41s-2.57-66.2-2.57-132.41c0-2.97,1.43-6.82,3.59-8.86,2.15-2.04,5.94-1.1,8.93-.93,6.68.37,12.8-2.07,18.59-2.07,42.46,0,83.33-6.13,120.74-21,38.62-15.34,75.11-36.58,105-64.62,29.9-28.05,54.06-62.81,71.83-100.36,17.22-36.4,27.57-76.96,30.24-119.33.36-5.69,4.41-11.54,10.11-11.54,63.22,0,63.22,2.72,126.44,2.72s63.21-3.35,126.42-3.35,63.22.78,126.43.78,63.22-.24,126.44-.24,63.23,1.71,126.45,1.71,63.21.96,126.42.96,63.23,1.28,126.46,1.28,63.23-4.39,126.47-4.39,63.24.96,126.49.96,63.24-1.34,126.49-1.34c5.7,0,9.72,6.76,10.08,12.45,2.67,42.37,14.99,82.02,32.21,118.42,17.77,37.55,43.13,69.89,73.03,97.93,29.89,28.04,62.96,53.34,101.58,68.69,37.42,14.87,78.57,19.67,121.03,19.67,1.36,0,2.76,3.88,4.11,3.83,1.46-.04,1.36-2.75,2.82-2.82,3.13-.2,7.16.67,9.22,2.7,2.07,2.03,0,6.23,0,9.13,0,66.14,3.86,66.14,3.86,132.29,0,66.13-1.15,66.13-1.15,132.26,0,66.14.3,66.14.3,132.28q0,66.14-.1,132.28c0,66.15.89,66.15.89,132.3,0,66.13.29,66.13.29,132.26,0,66.15-.64,66.15-.64,132.31,0,66.16-1.92,66.16-1.92,132.31,0,66.17-1.23,66.17-1.23,132.33s1.74,66.17,1.74,132.33c0,2.9-1.58,5.47-3.65,7.5-2.07,2.03-4.43,3.1-7.57,3.11-1.46-.02-1.41-1.42-2.87-1.46-1.35-.04-2.75.82-4.1.82-43.81,0-84.79,11.74-123.16,27.62-39.56,16.38-75.38,38.93-105.51,68.59-30.13,29.67-54.03,64.78-71.02,104.09-16.47,38.12-26.55,79.28-27.23,123.08-.09,5.9-5.74,12.35-11.64,12.35ZM606.13,2194.82c58.42,21.09,61.52,1.76,123.64,1.76s62.1,2.32,124.21,2.32,62.11-3.46,124.22-3.46,62.11-.85,124.22-.85,62.12,1.81,124.24,1.81,62.1-.63,124.2-.63,62.12,1.5,124.25,1.5,62.13.57,124.25.57,62.13-3.37,124.27-3.37,66.34,24.53,124.83,3.56c2.09-45.29,11.81-90.24,29.75-129.53,18.44-40.39,46.01-75.36,77.6-105.85,31.57-30.48,67.77-56.11,108.82-73.11,39.85-16.5,82.14-26.32,127.55-26.79,21.37-61.44,1.6-64.66,1.6-129.7,0-65.04-.56-65.04-.56-130.07,0-65.04-1.08-65.04-1.08-130.09,0-65.04-.44-65.04-.44-130.09,0-65.05,3.38-65.05,3.38-130.11,0-65.03-.92-65.03-.92-130.07,0-65.06-.9-65.06-.9-130.12,0-65.06-.46-65.06-.46-130.12,0-65.07-1.92-65.07-1.92-130.14,0-65.07,24.24-68.82,3.45-130.48-44.02-.45-86.68-10.19-125.55-25.66-40.07-15.95-77.22-37.63-108.52-66.44-31.32-28.84-56.1-64.03-75.27-102.62-18.63-37.51-32.36-77.14-36.39-120.92-58.9-20.07-61.84.29-124.07.29-62.21,0-62.21-2.39-124.42-2.39-62.22,0-62.22,2.63-124.44,2.63-62.22,0-62.22-2.06-124.44-2.06-62.23,0-62.23-1.84-124.46-1.84-62.21,0-62.21,1.13-124.42,1.13-62.23,0-62.23.47-124.46.47-62.24,0-62.24,2.04-124.47,2.04-62.24,0-62.24-2.72-124.49-2.72-62.24,0-64.96-16.95-123.84,3.24-4.05,44.09-15.85,84.38-34.71,122.1-19.41,38.8-45.92,73.99-77.62,102.88-31.65,28.85-69.66,50.64-110.16,66.39-39.23,15.26-81.72,22.64-126.09,22.64-2.72,0-7.97,1.1-10.82,1.03-1.43,65.04,4.39,65.11,4.39,130.17,0,65.05-.96,65.05-.96,130.09,0,65.05,1.34,65.05,1.34,130.11,0,65.05-2.98,65.05-2.98,130.11,0,65.06,1.7,65.06,1.7,130.12,0,65.04,1.32,65.04,1.32,130.09,0,65.07-3.53,65.07-3.53,130.13,0,65.07,3.45,65.07,3.45,130.14,0,65.08-3.93,65.08-3.93,130.16,0,65.08,1.31,65.07,2.73,130.14,2.85-.08,4.57-2.08,7.3-2.08,45.76,0,88.91,12.67,129.14,28.96,41.48,16.8,81.21,38.21,113.14,68.72,31.97,30.54,57.61,68.14,76.28,108.76,18.16,39.51,28.94,81.64,31.04,127.25Z"/>
      <path class="st2" d="M339.96,468.53c-5.96,0-8.64-6.54-8.64-12.51,0-55.45-4.69-55.45-4.69-110.9,0-55.45.28-55.45.28-110.9,0-5.96,7.09-9.99,13.06-9.99s10.76,4.02,10.76,9.99c0,55.45-1.44,55.45-1.44,110.9,0,55.45.21,55.45.21,110.9,0,5.96-3.57,12.51-9.53,12.51Z"/>
      <path class="st2" d="M477.29,347.76c-59.98,0-59.98.65-119.95.65-59.98,0-59.98-.49-119.95-.49-5.96,0-9.78-4.03-9.78-9.99s3.82-9.85,9.78-9.85c59.98,0,59.98-1.54,119.95-1.54s59.98-1.96,119.95-1.96c5.96,0,9.79,7.38,9.79,13.35s-3.82,9.83-9.79,9.83Z"/>
      <path class="st2" d="M2101.52,464.64c-5.96,0-13-2.66-13-8.62,0-55.45,4.19-55.45,4.19-110.9,0-55.45-.86-55.45-.86-110.9,0-5.96,3.71-12.85,9.67-12.85s12.51,6.89,12.51,12.85c0,55.45-2.49,55.45-2.49,110.9,0,55.45,2.6,55.45,2.6,110.9,0,5.96-6.66,8.62-12.62,8.62Z"/>
      <path class="st2" d="M2204.1,347.95c-59.98,0-59.98-.8-119.95-.8-59.98,0-59.98,2.96-119.95,2.96-5.96,0-8.63-6.22-8.63-12.18s2.67-8.46,8.63-8.46c59.98,0,59.98-1.91,119.95-1.91s59.98-.1,119.95-.1c5.96,0,8.8,4.51,8.8,10.47s-2.84,10.02-8.8,10.02Z"/>
      <path class="st2" d="M339.96,2204.92c-5.96,0-12.97-2.92-12.97-8.88,0-55.45,2.1-55.45,2.1-110.89,0-55.45-2.41-55.45-2.41-110.89,0-5.96,7.31-11.57,13.28-11.57s11.61,5.61,11.61,11.57q0,55.45.05,110.89c0,55.45,1.42,55.45,1.42,110.89,0,5.96-7.12,8.88-13.08,8.88Z"/>
      <path class="st2" d="M477.29,2101.51c-59.98,0-59.98,2.43-119.95,2.43-59.98,0-59.98-1.91-119.95-1.91-5.96,0-12.28-3.72-12.28-9.68s6.31-8.94,12.28-8.94c59.98,0,59.98-2.57,119.95-2.57s59.98-1.17,119.95-1.17c5.96,0,11.93,6.72,11.93,12.68s-5.97,9.16-11.93,9.16Z"/>
      <path class="st2" d="M2101.52,2207.62c-5.96,0-12.56-5.63-12.56-11.59,0-55.45,2.83-55.45,2.83-110.89,0-55.45-.74-55.45-.74-110.89,0-5.96,4.51-12.5,10.47-12.5s9.22,6.54,9.22,12.5c0,55.45-.92,55.45-.92,110.89,0,55.45,1.96,55.45,1.96,110.89,0,5.96-4.29,11.59-10.25,11.59Z"/>
      <path class="st2" d="M2204.1,2101.93c-59.98,0-59.98,3.42-119.95,3.42-59.98,0-59.98-3.58-119.95-3.58-5.96,0-11.86-3.47-11.86-9.43s5.91-12.36,11.86-12.36c59.98,0,59.98-.88,119.95-.88s59.98,1.53,119.95,1.53c5.96,0,11.48,5.75,11.48,11.71s-5.52,9.59-11.48,9.59Z"/>
    </g>
  </g>
</svg>

