<?xml version="1.0" encoding="UTF-8"?>
<svg id="Layer_1" xmlns="http://www.w3.org/2000/svg" version="1.1" viewBox="0 0 131.8 132.18">
  <!-- Generator: Adobe Illustrator 29.8.1, SVG Export Plug-In . SVG Version: 2.1.1 Build 2)  -->
  <path fill="#ffffff" d="M41.83,50.49c-8.76,0-8.76.34-17.52.34q-8.76,0-17.52-.01c-3.53,0-5.86-3.56-5.86-7.09s2.33-5.77,5.86-5.77c7.17,0,7.17-.75,14.33-.75s9.29,5.23,14.17-.01c5.25-5.64-.69-7.55-.69-15.25,0-7.7,1.56-7.7,1.56-15.4,0-3.53,2.15-5.83,5.67-5.83s5.71,2.3,5.71,5.83c0,9.3.72,9.3.72,18.59,0,9.3.34,9.3.34,18.59,0,3.53-3.25,6.76-6.77,6.76Z"/>
  <path fill="#ffffff" d="M125.51,49.34c-8.76,0-8.76.3-17.52.3-8.76,0-8.76.59-17.52.59-3.53,0-7.09-2.98-7.09-6.5,0-9.3,1.03-9.3,1.03-18.59,0-9.3-.97-9.3-.97-18.59,0-3.53,3.51-6.54,7.03-6.54s7,3.02,7,6.54c0,7.7.03,7.7.03,15.4s-5.29,9.2-.05,14.84c4.88,5.25,6.56,0,13.73,0s7.17.8,14.33.8c3.53,0,5.58,2.62,5.58,6.15s-2.06,5.61-5.58,5.61Z"/>
  <path fill="#ffffff" d="M41.83,132.18c-3.53,0-5.82-3.39-5.82-6.92,0-7.7-1.28-7.7-1.28-15.4,0-7.7,5.88-9.68.63-15.32-4.88-5.25-7.08-.39-14.24-.39-7.17,0-7.17-.02-14.33-.02-3.53,0-6.79-2.53-6.79-6.05s3.26-5.95,6.79-5.95c8.76,0,8.76-.32,17.52-.32s8.76-.98,17.52-.98c3.53,0,5.86,3.73,5.86,7.26,0,9.3-.32,9.3-.32,18.59,0,9.3,1.66,9.3,1.66,18.59,0,3.53-3.68,6.92-7.2,6.92Z"/>
  <path fill="#ffffff" d="M90.46,131.49c-3.53,0-6.7-2.7-6.7-6.23,0-9.3-.32-9.3-.32-18.59s1.27-9.3,1.27-18.59c0-3.53,2.22-6.81,5.75-6.81,8.76,0,8.76,1.19,17.52,1.19s8.76-1.41,17.52-1.41c3.53,0,6.29,3.5,6.29,7.02s-2.77,5.5-6.29,5.5c-7.17,0-7.17.28-14.33.28-7.17,0-9.12-4.33-14,.91-5.25,5.64.55,7.39.55,15.09,0,7.7-1.46,7.7-1.46,15.4,0,3.53-2.28,6.23-5.8,6.23Z"/>
</svg>