<?xml version="1.0" encoding="UTF-8"?>
<svg id="Layer_1" xmlns="http://www.w3.org/2000/svg" version="1.1" viewBox="545 500 850 180">
  <defs>
    <clipPath id="progressClip">
      <rect id="progressRect" x="545" y="500" width="0" height="180"/>
    </clipPath>
  </defs>
  <!-- Black footsteps (base layer) -->
  <g class="footsteps-base" fill="#000">
    <g id="Ii2bOy">
      <g>
        <path d="M736.5,561.17l3.02-12.9c8.39.53,14.6-2.94,23.2-1.78,17.88,2.41,24.58,21.35,4.3,22.77-11.33.8-20.42-4.06-30.52-8.1Z"/>
        <path d="M799.49,528.24l-2.55-13.05c8.18-6.08,38.09-13.87,42.11-.99,3.45,11.05-12.47,16.34-21.1,16.1-6.78-.19-12.31-4.65-18.46-2.06Z"/>
        <path d="M616.5,558.18l3.02-12.89c12.24.25,21.74-5.2,33.3,2.12,7.64,4.84,9.69,15.55-.52,18.15-12.81,3.27-24.53-2.17-35.79-7.38Z"/>
        <path d="M850.48,554.23c6.49,2.28,13.02-2.13,19.45-2.02,7.15.12,20.12,5.24,20.48,13.61.74,16.99-34.96,7.93-42.86.84l2.93-12.43Z"/>
        <path d="M679.48,525.25l-2.56-13.06c8.32-5.28,32.91-12.02,40.13-4.03,8.65,9.59-5.88,18.35-15.03,19.11-8.7.73-14.59-3.61-22.54-2.03Z"/>
        <path d="M947.14,530.9c-9.76,9.72-25.26,3-36.64,3.34l-2.8-12.55c7.79-6.08,33.4-11.6,40.32-4.49,3.82,3.92,2.73,10.11-.88,13.7Z"/>
        <path d="M675.48,527.22c-21.65,10.67-28.42-10.15-4.65-13.06l4.65,13.06Z"/>
        <path d="M735.35,545.36l-4.52,12.8c-23.06-2.85-16.14-24.71,4.52-12.8Z"/>
        <path d="M615.34,543.93l-3.36,10.31c-2.37,2.92-19.24-2.44-14.98-11.98,2.56-5.72,15.45-2.87,18.34,1.67Z"/>
        <path d="M842.46,565.25c-5.77-1.89-15.57-3.58-15.08-11.51.53-8.57,16.23-5.34,18.65-1.49,1.66,2.63-3.61,9.71-3.57,13.01Z"/>
        <path d="M795.32,527.94c.25,4.33-21.45,10.54-18.83-3.17.75-3.91,9.78-8.18,13.47-7.59,2.25.36,5.24,8.6,5.36,10.76Z"/>
        <path d="M906.4,536.14c-21.3,10.97-28.03-9.9-4.55-12.82l4.55,12.82Z"/>
      </g>
    </g>
    <g id="Ii2bOy1" data-name="Ii2bOy">
      <g>
        <path d="M1109.78,561.17l3.02-12.9c8.39.53,14.6-2.94,23.2-1.78,17.88,2.41,24.58,21.35,4.3,22.77-11.33.8-20.42-4.06-30.52-8.1Z"/>
        <path d="M1172.77,528.24l-2.55-13.05c8.18-6.08,38.09-13.87,42.11-.99,3.45,11.05-12.47,16.34-21.1,16.1-6.78-.19-12.31-4.65-18.46-2.06Z"/>
        <path d="M989.78,558.18l3.02-12.89c12.24.25,21.74-5.2,33.3,2.12,7.64,4.84,9.69,15.55-.52,18.15-12.81,3.27-24.53-2.17-35.79-7.38Z"/>
        <path d="M1223.76,554.23c6.49,2.28,13.02-2.13,19.45-2.02,7.15.12,20.12,5.24,20.48,13.61.74,16.99-34.96,7.93-42.86.84l2.93-12.43Z"/>
        <path d="M1052.76,525.25l-2.56-13.06c8.32-5.28,32.91-12.02,40.13-4.03,8.65,9.59-5.88,18.35-15.03,19.11-8.7.73-14.59-3.61-22.54-2.03Z"/>
        <path d="M1320.42,530.9c-9.76,9.72-25.26,3-36.64,3.34l-2.8-12.55c7.79-6.08,33.4-11.6,40.32-4.49,3.82,3.92,2.73,10.11-.88,13.7Z"/>
        <path d="M1048.76,527.22c-21.65,10.67-28.42-10.15-4.65-13.06l4.65,13.06Z"/>
        <path d="M1108.63,545.36l-4.52,12.8c-23.06-2.85-16.14-24.71,4.52-12.8Z"/>
        <path d="M988.62,543.93l-3.36,10.31c-2.37,2.92-19.24-2.44-14.98-11.98,2.56-5.72,15.45-2.87,18.34,1.67Z"/>
        <path d="M1215.74,565.25c-5.77-1.89-15.57-3.58-15.08-11.51.53-8.57,16.23-5.34,18.65-1.49,1.66,2.63-3.61,9.71-3.57,13.01Z"/>
        <path d="M1168.6,527.94c.25,4.33-21.45,10.54-18.83-3.17.75-3.91,9.78-8.18,13.47-7.59,2.25.36,5.24,8.6,5.36,10.76Z"/>
        <path d="M1279.68,536.14c-21.3,10.97-28.03-9.9-4.55-12.82l4.55,12.82Z"/>
      </g>
    </g>
  </g>
  <!-- White footsteps (progress layer) -->
  <g class="footsteps-progress" fill="#fff" clip-path="url(#progressClip)">
    <g id="Ii2bOy">
      <g>
        <path d="M736.5,561.17l3.02-12.9c8.39.53,14.6-2.94,23.2-1.78,17.88,2.41,24.58,21.35,4.3,22.77-11.33.8-20.42-4.06-30.52-8.1Z"/>
        <path d="M799.49,528.24l-2.55-13.05c8.18-6.08,38.09-13.87,42.11-.99,3.45,11.05-12.47,16.34-21.1,16.1-6.78-.19-12.31-4.65-18.46-2.06Z"/>
        <path d="M616.5,558.18l3.02-12.89c12.24.25,21.74-5.2,33.3,2.12,7.64,4.84,9.69,15.55-.52,18.15-12.81,3.27-24.53-2.17-35.79-7.38Z"/>
        <path d="M850.48,554.23c6.49,2.28,13.02-2.13,19.45-2.02,7.15.12,20.12,5.24,20.48,13.61.74,16.99-34.96,7.93-42.86.84l2.93-12.43Z"/>
        <path d="M679.48,525.25l-2.56-13.06c8.32-5.28,32.91-12.02,40.13-4.03,8.65,9.59-5.88,18.35-15.03,19.11-8.7.73-14.59-3.61-22.54-2.03Z"/>
        <path d="M947.14,530.9c-9.76,9.72-25.26,3-36.64,3.34l-2.8-12.55c7.79-6.08,33.4-11.6,40.32-4.49,3.82,3.92,2.73,10.11-.88,13.7Z"/>
        <path d="M675.48,527.22c-21.65,10.67-28.42-10.15-4.65-13.06l4.65,13.06Z"/>
        <path d="M735.35,545.36l-4.52,12.8c-23.06-2.85-16.14-24.71,4.52-12.8Z"/>
        <path d="M615.34,543.93l-3.36,10.31c-2.37,2.92-19.24-2.44-14.98-11.98,2.56-5.72,15.45-2.87,18.34,1.67Z"/>
        <path d="M842.46,565.25c-5.77-1.89-15.57-3.58-15.08-11.51.53-8.57,16.23-5.34,18.65-1.49,1.66,2.63-3.61,9.71-3.57,13.01Z"/>
        <path d="M795.32,527.94c.25,4.33-21.45,10.54-18.83-3.17.75-3.91,9.78-8.18,13.47-7.59,2.25.36,5.24,8.6,5.36,10.76Z"/>
        <path d="M906.4,536.14c-21.3,10.97-28.03-9.9-4.55-12.82l4.55,12.82Z"/>
      </g>
    </g>
    <g id="Ii2bOy1" data-name="Ii2bOy">
      <g>
        <path d="M1109.78,561.17l3.02-12.9c8.39.53,14.6-2.94,23.2-1.78,17.88,2.41,24.58,21.35,4.3,22.77-11.33.8-20.42-4.06-30.52-8.1Z"/>
        <path d="M1172.77,528.24l-2.55-13.05c8.18-6.08,38.09-13.87,42.11-.99,3.45,11.05-12.47,16.34-21.1,16.1-6.78-.19-12.31-4.65-18.46-2.06Z"/>
        <path d="M989.78,558.18l3.02-12.89c12.24.25,21.74-5.2,33.3,2.12,7.64,4.84,9.69,15.55-.52,18.15-12.81,3.27-24.53-2.17-35.79-7.38Z"/>
        <path d="M1223.76,554.23c6.49,2.28,13.02-2.13,19.45-2.02,7.15.12,20.12,5.24,20.48,13.61.74,16.99-34.96,7.93-42.86.84l2.93-12.43Z"/>
        <path d="M1052.76,525.25l-2.56-13.06c8.32-5.28,32.91-12.02,40.13-4.03,8.65,9.59-5.88,18.35-15.03,19.11-8.7.73-14.59-3.61-22.54-2.03Z"/>
        <path d="M1320.42,530.9c-9.76,9.72-25.26,3-36.64,3.34l-2.8-12.55c7.79-6.08,33.4-11.6,40.32-4.49,3.82,3.92,2.73,10.11-.88,13.7Z"/>
        <path d="M1048.76,527.22c-21.65,10.67-28.42-10.15-4.65-13.06l4.65,13.06Z"/>
        <path d="M1108.63,545.36l-4.52,12.8c-23.06-2.85-16.14-24.71,4.52-12.8Z"/>
        <path d="M988.62,543.93l-3.36,10.31c-2.37,2.92-19.24-2.44-14.98-11.98,2.56-5.72,15.45-2.87,18.34,1.67Z"/>
        <path d="M1215.74,565.25c-5.77-1.89-15.57-3.58-15.08-11.51.53-8.57,16.23-5.34,18.65-1.49,1.66,2.63-3.61,9.71-3.57,13.01Z"/>
        <path d="M1168.6,527.94c.25,4.33-21.45,10.54-18.83-3.17.75-3.91,9.78-8.18,13.47-7.59,2.25.36,5.24,8.6,5.36,10.76Z"/>
        <path d="M1279.68,536.14c-21.3,10.97-28.03-9.9-4.55-12.82l4.55,12.82Z"/>
      </g>
    </g>
  </g>
</svg>