<?xml version="1.0" encoding="UTF-8"?>
<svg id="Layer_1" xmlns="http://www.w3.org/2000/svg" version="1.1" viewBox="0 0 348.02 119.56">
  <!-- Generator: Adobe Illustrator 29.8.1, SVG Export Plug-In . SVG Version: 2.1.1 Build 2)  -->
  <path fill="#fff" d="M212.36,108.82c-1.56,0-2.35-.07-3.12-.14-.71-.06-1.38-.13-2.77-.13-1.45,0-2.18.01-2.9.03-.75.02-1.49.03-2.98.03-1.68,0-2.57-.19-3.36-.36-.68-.15-1.26-.27-2.52-.27s-1.78.13-2.47.31c-.8.2-1.71.42-3.42.42-1.58,0-2.39-.09-3.17-.18-.7-.08-1.36-.16-2.72-.16-1.48,0-2.23,0-2.97-.02-.73,0-1.46-.02-2.92-.02-1.35,0-2,.08-2.7.17-.78.1-1.59.2-3.19.2h-5.89c-1.49.01-2.24,0-2.98-.02-.73-.01-1.45-.03-2.91-.03h-5.89c-1.71,0-2.62-.22-3.42-.42-.69-.17-1.24-.31-2.47-.31-1.48,0-2.22,0-2.96-.01-.73,0-1.46-.01-2.93-.01-1.36,0-2.02.07-2.73.15-.78.09-1.58.18-3.16.18-1.29,0-1.89.11-2.58.24-.77.15-1.65.31-3.31.31-1.52,0-2.28-.04-3.04-.07-.71-.03-1.43-.07-2.85-.07s-2.18.01-2.91.03c-.74.01-1.49.03-2.98.03s-2.34-.06-3.1-.13c-.72-.06-1.39-.11-2.79-.11-1.55,0-2.33-.06-3.09-.12-.72-.05-1.4-.11-2.8-.11s-1.95.09-2.67.19c-.75.11-1.61.23-3.22.23s-2.52-.15-3.29-.29c-.7-.12-1.3-.23-2.61-.23s-1.92.1-2.62.22c-.77.13-1.63.27-3.27.27s-2.4-.1-3.18-.19c-.7-.08-1.35-.16-2.71-.16-1.57,0-2.37-.08-3.14-.16-.71-.07-1.37-.14-2.75-.14-1.21,0-1.74.15-2.42.33-.81.22-1.73.47-3.47.47s-2.68-.27-3.49-.51c-.67-.2-1.2-.35-2.39-.35-1.31,0-1.92.1-2.62.22-.77.13-1.63.27-3.27.27-1.34,0-1.99.09-2.68.18-.75.1-1.61.22-3.21.22-1.7,0-2.6-.21-3.4-.4-.67-.16-1.25-.29-2.5-.29-1.44,0-2.16.03-2.88.05-.75.03-1.51.05-3.02.05-1.39,0-2.06.06-2.77.12-.77.07-1.56.14-3.12.14s-2.38-.09-3.16-.17c-.7-.08-1.37-.15-2.73-.15-1.47,0-2.2,0-2.94,0-.74,0-1.48,0-2.96,0-1.32,0-1.93.1-2.64.21-.77.12-1.63.26-3.27.26-1.46,0-2.19.01-2.92.02-.75.01-1.49.02-2.98.02-2.23,0-4.16-1.01-5.79-1.95-1.57-.91-3.53-2.04-4.66-3.99-1-1.73-1.57-3.93-1.57-6.03,0-1.58.02-2.37.04-3.15.02-.76.04-1.53.04-3.06,0-1.63.06-2.45.12-3.25.06-.76.11-1.48.11-2.96v-6.21c0-1.53-.01-2.3-.03-3.07-.01-.79-.03-1.57-.03-3.14s.04-2.4.08-3.2c.04-.75.07-1.5.07-3.01s-.02-2.28-.05-3.05c-.03-.79-.05-1.59-.05-3.17s.05-2.43.09-3.22c.04-.75.08-1.5.08-3,0-1.39-.11-2.04-.23-2.78-.14-.81-.29-1.72-.29-3.44,0-1.93,1-3.44,1.81-4.65.21-.31.41-.62.59-.93.15-.26.3-.53.44-.8.75-1.39,1.6-2.96,3.28-3.93,1.73-1,3.68-.99,5.4-.98h.56c1.47,0,2.2,0,2.93,0,.74,0,1.48,0,2.95,0,1.26,0,1.84-.13,2.52-.28.79-.17,1.68-.37,3.37-.37s2.5.14,3.26.26c.71.11,1.31.21,2.63.21s2.05-.06,2.75-.13c.77-.08,1.57-.15,3.13-.15,1.66,0,2.54.17,3.32.32.69.13,1.29.25,2.57.25s1.91-.1,2.61-.23c.77-.13,1.64-.28,3.28-.28s2.4.1,3.19.2c.69.09,1.35.17,2.7.17s2-.08,2.7-.17c.79-.1,1.6-.2,3.19-.2s2.32.05,3.08.11c.72.05,1.4.1,2.81.1,1.54,0,2.32.05,3.08.11.72.05,1.4.1,2.81.1s1.99-.09,2.68-.18c.75-.1,1.6-.21,3.2-.21,1.44,0,2.15-.02,2.87-.05.75-.03,1.5-.05,3.01-.05s2.35.07,3.11.14c.71.06,1.38.12,2.77.12,1.29,0,1.89-.11,2.58-.24.77-.14,1.65-.31,3.3-.31,1.53,0,2.31.04,3.06.09.71.04,1.41.08,2.83.08,1.61,0,2.47.12,3.22.23.72.1,1.34.19,2.67.19s1.91-.1,2.61-.22c.77-.13,1.63-.28,3.27-.28s2.54.17,3.31.32c.69.13,1.29.25,2.57.25,1.43,0,2.15-.03,2.87-.05.75-.03,1.51-.05,3.01-.05,1.37,0,2.03-.07,2.73-.15.78-.08,1.58-.17,3.15-.17s2.27.03,3.03.06c.72.03,1.43.06,2.86.06h5.89c1.52-.01,2.29.03,3.05.07.71.04,1.42.08,2.83.08s2.19,0,2.92-.01c.74,0,1.48-.01,2.96-.01s2.12-.04,2.83-.08c.76-.04,1.53-.09,3.05-.09s2.25.02,3,.04c.72.02,1.45.04,2.89.04,1.35,0,2.01-.08,2.7-.17.78-.1,1.59-.2,3.19-.2s2.46.12,3.22.22c.72.1,1.34.19,2.67.19h5.89c1.42-.01,2.13-.05,2.84-.09.76-.04,1.53-.08,3.05-.08s2.39.09,3.16.18c.7.08,1.36.15,2.72.15h5.89s5.89,0,5.89,0c1.33,0,1.94-.09,2.66-.2.76-.11,1.62-.24,3.23-.24,1.48,0,2.22,0,2.96.01.73,0,1.46.01,2.93.01s2.29.04,3.06.09c.71.04,1.42.08,2.83.08,1.63,0,2.5.14,3.26.26.71.11,1.32.21,2.63.21,1.39,0,2.06-.06,2.78-.12.77-.07,1.56-.13,3.11-.13s2.22,0,2.96.01c.73,0,1.46.01,2.93.01,1.33,0,1.95-.09,2.66-.19.76-.11,1.61-.24,3.23-.24s2.41.1,3.19.2c.69.09,1.35.17,2.7.17,1.46,0,2.19,0,2.92-.02.74,0,1.48-.02,2.97-.02,1.33,0,1.94-.09,2.65-.2.76-.11,1.62-.24,3.24-.24,1.45,0,2.18-.01,2.91-.03.74-.01,1.49-.03,2.98-.03,1.59,0,2.4.1,3.18.19.7.08,1.36.16,2.71.16s2.08-.05,2.8-.1c.76-.05,1.54-.11,3.09-.11s2.25.02,3,.04c.72.02,1.45.04,2.89.04,1.69,0,2.58.2,3.37.37.68.15,1.26.28,2.53.28s1.89-.11,2.59-.24c.77-.14,1.65-.3,3.3-.3,1.44,0,2.17-.02,2.89-.04.75-.02,1.5-.04,3-.04s2.33.06,3.09.11c.72.05,1.4.1,2.8.1s2.14-.04,2.85-.07c.76-.04,1.52-.08,3.04-.08s2.23,0,2.97.01c.73,0,1.46.01,2.93.01s2.18-.02,2.91-.03c.75-.02,1.5-.03,3-.03s2.15-.03,2.86-.06c.76-.03,1.52-.07,3.04-.07,2.02,0,3.64.99,4.94,1.79.23.14.46.28.68.41,1.66.96,3.37,2.05,4.45,3.92,1.11,1.91,1.25,4.01,1.25,5.82v6.21c0,1.44.08,2.14.16,2.88.1.82.19,1.67.19,3.33,0,1.51.03,2.27.06,3.02.03.8.07,1.59.07,3.19s-.06,2.45-.12,3.25c-.05.76-.11,1.48-.11,2.97,0,1.69-.12,2.58-.23,3.38-.1.73-.2,1.42-.2,2.84,0,1.28.16,1.85.37,2.57.24.85.52,1.82.52,3.65s-.25,2.76-.47,3.61c-.19.73-.34,1.31-.34,2.62,0,1.55,0,2.32.01,3.1,0,.78.01,1.56.01,3.12,0,1.94-.5,3.66-1.61,5.59-.98,1.7-2.02,3.32-3.9,4.41-1.35.78-3.4,1.97-5.77,1.97-1.55,0-2.34-.06-3.1-.12-.72-.06-1.39-.11-2.79-.11s-2.03.07-2.73.15c-.78.08-1.58.17-3.16.17s-2.28-.03-3.03-.07c-.71-.03-1.43-.07-2.85-.07s-2.15.03-2.86.06c-.76.03-1.51.06-3.03.06-1.74,0-2.66-.26-3.48-.49-.68-.19-1.21-.34-2.41-.34-1.44,0-2.16.02-2.88.04-.75.02-1.5.04-3,.04-1.26,0-1.84.13-2.52.28-.79.17-1.68.37-3.36.37-1.43,0-2.14.03-2.86.06-.76.03-1.52.07-3.03.07s-2.32-.05-3.08-.11c-.72-.05-1.4-.1-2.81-.1-1.48,0-2.22,0-2.96-.01-.73,0-1.46-.01-2.93-.01-1.59,0-2.4-.1-3.18-.19-.7-.08-1.35-.16-2.71-.16-1.52,0-2.27-.03-3.03-.07-.71-.03-1.43-.07-2.85-.07s-2.16.02-2.88.04c-.75.02-1.5.05-3,.05s-2.16.02-2.87.05c-.75.03-1.5.05-3.01.05s-2.35-.07-3.11-.14c-.71-.06-1.39-.12-2.77-.12-1.23,0-1.78.13-2.47.3-.8.2-1.7.42-3.42.42-1.52,0-2.28-.04-3.04-.08-.71-.04-1.42-.07-2.84-.07s-2.18.01-2.91.02c-.74.01-1.48.02-2.97.02-1.65,0-2.53-.16-3.3-.3-.69-.13-1.29-.24-2.58-.24s-1.91.1-2.61.22c-.77.13-1.64.28-3.27.28-1.4,0-2.08.05-2.8.1-.76.06-1.54.11-3.09.11ZM206.47,104.6c1.56,0,2.35.07,3.12.14.71.06,1.38.13,2.77.13s2.08-.05,2.8-.1c.76-.06,1.54-.11,3.09-.11,1.3,0,1.91-.1,2.61-.22.77-.13,1.64-.28,3.27-.28s2.53.16,3.3.3c.69.13,1.29.24,2.58.24,1.45,0,2.18-.01,2.91-.02.74-.01,1.49-.02,2.97-.02s2.28.04,3.04.08c.71.04,1.42.07,2.85.07,1.23,0,1.78-.13,2.47-.3.8-.2,1.7-.42,3.41-.42,1.56,0,2.35.07,3.12.14.71.06,1.39.12,2.77.12s2.16-.02,2.87-.05c.75-.03,1.5-.05,3.01-.05s2.16-.02,2.88-.04c.75-.02,1.5-.05,3-.05s2.27.03,3.03.07c.71.03,1.43.07,2.85.07,1.59,0,2.4.1,3.18.19.7.08,1.35.16,2.71.16,1.48,0,2.22,0,2.96.01.73,0,1.46.01,2.93.01,1.54,0,2.32.05,3.08.11.72.05,1.4.1,2.81.1s2.14-.03,2.86-.06c.76-.03,1.52-.07,3.03-.07,1.26,0,1.85-.13,2.52-.28.79-.17,1.68-.37,3.36-.37,1.44,0,2.16-.02,2.88-.04.75-.02,1.5-.04,3-.04,1.74,0,2.66.26,3.48.49.68.19,1.21.34,2.41.34,1.43,0,2.15-.03,2.86-.06.76-.03,1.51-.06,3.03-.06s2.28.03,3.03.07c.71.03,1.43.07,2.85.07s2.03-.07,2.73-.15c.78-.08,1.58-.17,3.15-.17s2.34.06,3.1.12c.72.06,1.39.11,2.79.11,1.21,0,2.43-.65,3.79-1.44,1.03-.6,1.7-1.65,2.46-2.97.76-1.31,1.08-2.39,1.08-3.61,0-1.55,0-2.32-.01-3.1,0-.78-.01-1.56-.01-3.12,0-1.81.25-2.76.47-3.61.19-.73.34-1.31.34-2.62s-.16-1.85-.37-2.57c-.24-.85-.52-1.82-.52-3.65,0-1.69.12-2.58.23-3.38.1-.73.2-1.42.2-2.84,0-1.62.06-2.45.12-3.25.05-.76.11-1.48.11-2.97s-.03-2.27-.06-3.02c-.03-.8-.07-1.59-.07-3.19,0-1.44-.08-2.14-.17-2.88-.1-.82-.19-1.67-.19-3.33v-6.21c0-1.82-.22-2.97-.72-3.85-.59-1.03-1.72-1.73-3.01-2.48-.25-.15-.51-.3-.76-.46-1.02-.62-1.98-1.21-2.89-1.21-1.43,0-2.15.03-2.86.06-.76.03-1.52.07-3.04.07s-2.18.02-2.91.03c-.75.02-1.5.03-3,.03s-2.23,0-2.97-.01c-.73,0-1.46-.01-2.93-.01s-2.14.04-2.85.07c-.76.04-1.52.08-3.04.08s-2.33-.06-3.09-.11c-.72-.05-1.4-.1-2.81-.1s-2.17.02-2.89.04c-.75.02-1.5.04-3,.04-1.29,0-1.9.11-2.59.24-.77.14-1.65.3-3.3.3s-2.58-.2-3.37-.37c-.68-.15-1.26-.28-2.53-.28-1.5,0-2.25-.02-3-.04-.72-.02-1.45-.04-2.89-.04s-2.08.05-2.8.1c-.76.05-1.54.11-3.09.11s-2.4-.1-3.18-.19c-.7-.08-1.36-.16-2.71-.16-1.45,0-2.18.01-2.9.03-.75.01-1.49.03-2.98.03-1.32,0-1.94.09-2.65.2-.76.11-1.62.24-3.24.24-1.46,0-2.19,0-2.93.02-.74,0-1.48.02-2.97.02-1.6,0-2.41-.1-3.19-.2-.69-.09-1.35-.17-2.7-.17s-1.95.09-2.66.19c-.76.11-1.61.24-3.23.24-1.48,0-2.22,0-2.96-.01-.73,0-1.46-.01-2.93-.01-1.39,0-2.06.06-2.78.12-.76.07-1.55.13-3.11.13s-2.5-.14-3.26-.26c-.71-.11-1.32-.21-2.63-.21-1.53,0-2.29-.04-3.06-.09-.71-.04-1.42-.08-2.83-.08s-2.22,0-2.96-.01c-.73,0-1.46-.01-2.93-.01-1.33,0-1.94.09-2.66.2-.76.11-1.62.24-3.23.24h-5.89s-5.89,0-5.89,0c-1.58,0-2.39-.09-3.17-.18-.7-.08-1.36-.15-2.72-.15s-2.13.04-2.84.08c-.76.04-1.53.08-3.05.08h-5.89c-1.61.01-2.46-.11-3.22-.21-.72-.1-1.34-.19-2.67-.19s-2.01.08-2.7.17c-.78.1-1.59.2-3.19.2-1.5,0-2.25-.02-3-.04-.72-.02-1.45-.04-2.89-.04s-2.12.04-2.83.08c-.76.04-1.53.09-3.06.09s-2.19,0-2.92.01c-.74,0-1.48.01-2.96.01s-2.29-.04-3.05-.08c-.71-.04-1.42-.08-2.84-.08h-5.89c-1.51.01-2.27-.02-3.03-.05-.72-.03-1.43-.06-2.86-.06s-2.03.07-2.73.15c-.78.08-1.58.17-3.15.17-1.44,0-2.15.03-2.87.05-.75.03-1.51.05-3.01.05-1.66,0-2.54-.17-3.31-.32-.69-.13-1.29-.25-2.57-.25s-1.91.1-2.61.22c-.77.13-1.63.28-3.27.28s-2.46-.12-3.22-.23c-.72-.1-1.34-.19-2.67-.19-1.53,0-2.31-.04-3.06-.09-.71-.04-1.41-.08-2.83-.08-1.29,0-1.89.11-2.58.24-.77.14-1.65.31-3.3.31-1.56,0-2.35-.07-3.11-.14-.71-.06-1.38-.12-2.77-.12s-2.16.02-2.87.05c-.75.03-1.5.05-3.01.05-1.34,0-2,.09-2.68.18-.75.1-1.6.21-3.2.21s-2.32-.05-3.08-.11c-.72-.05-1.4-.1-2.81-.1-1.54,0-2.32-.05-3.08-.11-.72-.05-1.4-.1-2.81-.1s-2,.08-2.7.17c-.79.1-1.6.2-3.19.2s-2.4-.1-3.18-.2c-.69-.09-1.35-.17-2.7-.17s-1.91.1-2.61.23c-.77.13-1.64.28-3.28.28s-2.54-.17-3.32-.32c-.69-.13-1.29-.25-2.57-.25-1.38,0-2.05.06-2.75.13-.77.08-1.57.15-3.13.15s-2.49-.14-3.26-.26c-.71-.11-1.32-.21-2.63-.21s-1.84.13-2.52.28c-.79.17-1.68.37-3.37.37-1.47,0-2.2,0-2.93,0-.74,0-1.48,0-2.95,0h-.59c-1.33-.01-2.59-.02-3.39.44-.71.41-1.23,1.37-1.78,2.39-.16.3-.33.6-.5.9-.22.38-.47.75-.72,1.14-.59.89-1.15,1.74-1.15,2.47,0,1.39.11,2.04.23,2.78.14.81.29,1.72.29,3.44,0,1.61-.05,2.43-.09,3.22-.04.75-.08,1.5-.08,3s.02,2.28.05,3.05c.03.79.05,1.59.05,3.17s-.04,2.4-.08,3.2c-.04.75-.07,1.5-.07,3.01s.01,2.3.03,3.07c.01.79.03,1.57.03,3.14v6.21c0,1.63-.06,2.45-.12,3.25-.06.76-.11,1.48-.11,2.96,0,1.58-.02,2.37-.04,3.15-.02.76-.04,1.53-.04,3.06,0,1.41.39,2.93,1.04,4.06.6,1.03,1.99,1.84,3.22,2.55,1.24.72,2.56,1.42,3.81,1.42,1.46,0,2.19-.01,2.92-.02.75-.01,1.49-.02,2.98-.02,1.32,0,1.93-.1,2.64-.21.76-.12,1.63-.26,3.26-.26,1.47,0,2.2,0,2.94,0,.74,0,1.48,0,2.96,0,1.58,0,2.38.09,3.16.17.7.08,1.37.15,2.73.15s2.06-.06,2.78-.12c.77-.07,1.56-.14,3.12-.14,1.44,0,2.16-.03,2.88-.05.75-.03,1.51-.05,3.02-.05,1.7,0,2.6.21,3.4.4.67.16,1.25.29,2.5.29,1.34,0,1.99-.09,2.68-.18.75-.1,1.61-.22,3.22-.22,1.31,0,1.92-.1,2.62-.22.77-.13,1.63-.27,3.27-.27,1.75,0,2.68.27,3.49.51.67.2,1.2.35,2.39.35s1.74-.15,2.43-.33c.81-.22,1.73-.47,3.47-.47,1.57,0,2.37.08,3.14.16.71.07,1.37.14,2.75.14,1.59,0,2.4.1,3.18.19.7.08,1.35.16,2.71.16s1.92-.1,2.62-.22c.77-.13,1.63-.27,3.27-.27s2.52.15,3.29.29c.7.12,1.3.23,2.61.23s1.95-.09,2.67-.19c.75-.11,1.61-.23,3.22-.23s2.33.06,3.1.12c.72.05,1.4.11,2.8.11,1.55,0,2.34.06,3.1.13.72.06,1.39.11,2.79.11s2.18-.01,2.91-.03c.75-.01,1.49-.03,2.98-.03s2.28.04,3.04.07c.71.03,1.43.07,2.85.07,1.29,0,1.89-.11,2.58-.24.77-.15,1.65-.31,3.31-.31,1.36,0,2.02-.07,2.73-.15.78-.09,1.58-.18,3.16-.18,1.48,0,2.22,0,2.96.01.73,0,1.46.01,2.93.01,1.71,0,2.62.23,3.42.42.69.17,1.24.31,2.47.31h5.89c1.49,0,2.24,0,2.98.02.73.01,1.45.03,2.91.03h5.89c1.35-.01,2-.09,2.7-.18.78-.1,1.59-.2,3.19-.2,1.48,0,2.23,0,2.97.02.73,0,1.46.02,2.92.02,1.58,0,2.39.09,3.17.18.7.08,1.36.16,2.72.16,1.23,0,1.78-.13,2.47-.31.8-.2,1.7-.42,3.42-.42s2.57.19,3.36.36c.68.15,1.26.27,2.53.27,1.45,0,2.18-.01,2.9-.03.75-.02,1.49-.03,2.98-.03Z"/>
  <g>
    <path fill="#fff" d="M31.18,13.41V3.09c0-1.02-1.07-1.46-1.07-2.34,0-.44.4-.6.81-.6,2.43,0,4.72-.15,7.15-.15,2.83,0,3.93,2.36,3.93,5.17,0,6.63-8.38.58-8.38,6.63v1.17c.28.73.95,1.33.95,2.21v.29l-.26.15h-3.38c-.55,0-.81-.29-.81-.88,0-.73,1.07-.6,1.07-1.33ZM34.56,6.63h3.79c.53,0,1.21-.73,1.34-1.17v-.88c0-2.21-1.48-2.5-3.24-2.5h-1.48c-.95,0-1.36,1.33-1.36,2.21,0,.57.28,2.34.95,2.34Z"/>
    <path fill="#fff" d="M46.51,14.73c0-.88,1.21-1.48,1.21-2.65v-4.42c0-1.04-1.21-1.48-1.21-2.5,0-.44,1.07-.44,1.21-.44h.14c.67,0,1.48.88,2.02.88,1.07,0,1.88-1.04,2.96-1.04.14,0,.55.15.69.15l.12.13v.44c0,2.36-3.64,1.04-3.64,6.18v1.33c.14.88.95,1.33.95,2.36,0,.6-.67.44-1.07.44s-2.57-.15-2.97-.15c-.41-.13-.41-.29-.41-.73Z"/>
    <path fill="#fff" d="M62.78,4.57c2.29,0,5.4.44,5.4,3.53,0,1.77-.28,1.9-2.02,1.9h-5.14c-.26.31-.53.75-.53,1.04,0,.88.81,2.65,1.62,2.65h2.02c.93,0,1.74-1.04,2.96-1.04h.69c.12.16.12.44.12.6,0,2.36-3.36,2.5-4.86,2.5h-1.48c-2.57-1.33-3.64-3.09-3.64-6.18s2.43-4.99,4.86-4.99ZM64,8.24c.55,0,1.07,0,1.48-.29v-.44c0-1.17-1.48-1.04-2.15-1.04h-1.09c-.53.16-1.21.44-1.21,1.19,0,.29.14.29.41.44,1.09.13,1.62.13,2.57.13Z"/>
    <path fill="#fff" d="M74.55,12.37c1.48,0,2.55,1.46,4.17,1.46.69,0,1.76-.29,1.76-1.33,0-2.05-6.48-.44-6.48-4.86,0-2.5,2.69-3.09,4.6-3.09,1.21,0,3.76.75,3.76,2.52v.57c-.12.31-.67.31-.93.31-1.21,0-1.9-1.48-3.12-1.48-.93,0-2.29,0-2.29,1.33,0,2.05,6.74.15,6.74,4.7v.88c-.41,1.77-3.1,2.21-4.31,2.21-.81,0-5.26-.44-5.26-1.9,0-.88.55-1.33,1.36-1.33Z"/>
    <path fill="#fff" d="M88.92,12.37c1.48,0,2.55,1.46,4.17,1.46.69,0,1.76-.29,1.76-1.33,0-2.05-6.48-.44-6.48-4.86,0-2.5,2.69-3.09,4.6-3.09,1.21,0,3.77.75,3.77,2.52v.57c-.12.31-.67.31-.93.31-1.21,0-1.9-1.48-3.12-1.48-.93,0-2.29,0-2.29,1.33,0,2.05,6.74.15,6.74,4.7v.88c-.4,1.77-3.1,2.21-4.31,2.21-.81,0-5.26-.44-5.26-1.9,0-.88.55-1.33,1.36-1.33Z"/>
    <path fill="#fff" d="M113.85,11.49c.41,0,.95.13,1.36.29,1.36,1.33,2.17,1.77,3.79,1.77s2.55-.88,2.55-2.65v-.15c-1.62-2.21-8.5-1.9-8.5-4.99v-2.81c0-2.5,3.52-2.94,5.14-2.94h.93c1.36.44,2.57,1.02,3.93,1.33l.12.13v.6c0,.88-.12,1.77-1.07,1.77-1.48,0-2.69-1.61-4.45-1.61-1.48,0-2.29.57-2.29,2.21,0,2.94,8.62.88,8.62,6.63,0,3.38-2.29,4.71-5.12,4.71-.95,0-5.93-.73-5.93-2.5,0-.88.12-1.77.93-1.77Z"/>
    <path fill="#fff" d="M129.38,16.04v-2.5c0-2.36,0-3.53-.14-6.03-.12-.75-.67-1.33-.67-2.08,0-.58.14-.73.67-.73.95,0,1.9.88,2.83.88h.14c.26-.15,1.36-.73,1.62-.88.14,0,.4-.15.4-.15h2.02c2.43,0,3.5,3.53,3.5,5.46,0,3.38-1.74,5.59-4.86,5.59-1.07,0-2.15-.73-3.24-.73v1.92c.55.29,1.09.57,1.09,1.33,0,1.02-1.9.73-2.57.73-.55,0-2.02.29-2.02-.73,0-.88.95-1.19,1.21-2.08ZM135.59,6.63h-1.76c-.81,0-2.02,1.46-2.02,2.34v2.36c0,.88.95,1.92,1.48,2.36h.81c2.57,0,3.38-1.33,3.38-3.98,0-1.04-.55-3.09-1.88-3.09Z"/>
    <path fill="#fff" d="M151.63,7.66c.12-.15-.14-.88-.4-1.04h-.95c-1.62,0-2.57,1.19-3.91,1.19-.55,0-.95,0-.95-.6,0-1.17.95-1.92,1.88-2.36,1.5-.13,2.17-.13,3.52-.13h1.21c.81.58,1.62,1.33,2.15,2.21,0,.73.14,3.82.14,4.42,0,1.02.55,2.65.55,3.67,0,.31,0,.44-.28.44h-3.36c-.41.31-1.36.15-1.76.15-2.29,0-4.86-.15-4.86-3.38,0-3.53,6.21-2.36,7.02-4.57ZM146.89,12.08v1.17c0,.6,1.62.88,1.9.88.93,0,3.1-.29,3.1-1.77v-1.9c-.67,0-5,.57-5,1.61Z"/>
    <path fill="#fff" d="M164.59,4.55c1.21,0,5.12.6,5.12,2.36,0,.73-.55,1.48-1.21,1.48h-.26c-.14-.15-1.9-1.92-2.43-1.92h-1.9c-.81,0-1.88,1.61-1.88,2.36v2.34c0,1.77,1.62,2.52,2.98,2.52,1.48,0,2.29-1.48,3.64-1.48.53,0,.67.16.67.73,0,2.21-2.69,2.81-4.31,2.81-3.93,0-5.26-2.05-5.26-6.18,0-2.81,2.29-5.01,4.86-5.01Z"/>
    <path fill="#fff" d="M179.41,4.57c2.29,0,5.4.44,5.4,3.53,0,1.77-.28,1.9-2.02,1.9h-5.14c-.26.31-.53.75-.53,1.04,0,.88.81,2.65,1.62,2.65h2.02c.93,0,1.74-1.04,2.96-1.04h.69c.12.16.12.44.12.6,0,2.36-3.36,2.5-4.86,2.5h-1.48c-2.57-1.33-3.64-3.09-3.64-6.18s2.43-4.99,4.86-4.99ZM180.62,8.24c.55,0,1.07,0,1.48-.29v-.44c0-1.17-1.48-1.04-2.15-1.04h-1.09c-.53.16-1.21.44-1.21,1.19,0,.29.14.29.41.44,1.09.13,1.62.13,2.57.13Z"/>
    <path fill="#fff" d="M202.27,3.22c.26-.57.55-2.34,1.62-2.34.14,0,.26,0,.26.29s.14,1.61.14,1.92c.26,2.05,2.83,1.02,2.83,2.21,0,.44-.26.88-.55,1.02-1.88.31-2.15.44-2.15,2.52,0,1.61,0,2.65.12,4.42l.14.29.14.16h2.02c.26,0,.26.57.26.73,0,.44-.26,1.17-.67,1.17h-1.09c-4.45,0-2.43-4.26-3.36-7.8-.28-1.17-1.76-1.33-1.76-2.36,0-.88,1.62-1.17,2.02-2.21Z"/>
    <path fill="#fff" d="M216.89,4.55c2.83,0,5.12,2.08,5.12,5.17,0,2.21-.26,2.65-1.21,4.55-1.21,1.19-2.69,1.48-4.31,1.48-2.83,0-5-2.5-5-5.74,0-3.69,2.29-5.46,5.41-5.46ZM216.34,13.98c1.48,0,3.38-.88,3.38-2.8v-2.34s-.14-.15-.14-.31c-.26-.57-1.07-2.05-1.88-2.05h-1.9c-1.48,0-1.88,2.65-1.88,3.82,0,1.48.81,3.69,2.43,3.69Z"/>
    <path fill="#fff" d="M241.71,13.1c.41-1.33.28-3.22.28-4.55v-.15c0-1.17-.28-4.57-.28-4.86-.12-1.33-1.07-1.17-2.02-1.17h-.81c-.53.44-.67.57-1.21.57h-.53c-.28,0-.14-.44-.14-.57,0-1.63.26-1.92,1.62-2.21,1.21,0,7.29-.15,8.5-.15h.26c1.36,0,1.62.88,1.62,2.21v.88c0,.29-.4.16-.53.16-.95,0-1.62-.88-2.71-.88-1.21,0-1.62.57-1.62,1.9,0,1.92.28,3.98.28,5.9,0,.88-.14,1.77-.14,2.65s.95,1.33.95,2.36c0,.44-.41.58-.69.58h-2.96c-.28,0-.81-.13-.81-.58,0-.75.81-1.33.93-2.08Z"/>
    <path fill="#fff" d="M256.98,4.55c2.83,0,5.12,2.08,5.12,5.17,0,2.21-.26,2.65-1.21,4.55-1.21,1.19-2.69,1.48-4.31,1.48-2.83,0-5-2.5-5-5.74,0-3.69,2.29-5.46,5.41-5.46ZM256.43,13.98c1.48,0,3.38-.88,3.38-2.8v-2.34s-.14-.15-.14-.31c-.26-.57-1.07-2.05-1.88-2.05h-1.9c-1.48,0-1.88,2.65-1.88,3.82,0,1.48.81,3.69,2.43,3.69Z"/>
    <path fill="#fff" d="M267.61,16.65h.55c.93,0,1.74.88,2.69.88h2.69c.81,0,1.21-1.63,1.21-2.36v-.73c-1.34.29-2.43,1.02-3.91,1.02-1.62,0-3.64-1.77-3.64-3.67v-2.96c0-2.5,2.29-4.26,4.31-4.26,1.09,0,2.02.73,2.98.73h.26c.4-.13,1.76-.73,2.57-.88h.14c.26,0,.81.44.81.75,0,.88-.95,1.46-1.09,2.34-.26,2.52-.12,5.74-.12,7.82-.55,2.65-2.31,4.26-4.86,4.26-1.21,0-4.86,0-4.86-2.21,0-.29,0-.6.26-.73ZM272.87,13.69c1.62,0,2.02-2.94,2.02-4.26,0-.88-1.07-2.81-2.02-2.81h-1.62c-1.48,0-1.88,2.81-1.88,3.84,0,2.34,1.48,3.23,3.5,3.23Z"/>
    <path fill="#fff" d="M283.34,16.65h.55c.93,0,1.74.88,2.69.88h2.69c.81,0,1.21-1.63,1.21-2.36v-.73c-1.34.29-2.43,1.02-3.91,1.02-1.62,0-3.64-1.77-3.64-3.67v-2.96c0-2.5,2.29-4.26,4.31-4.26,1.09,0,2.02.73,2.98.73h.26c.4-.13,1.76-.73,2.57-.88h.14c.26,0,.81.44.81.75,0,.88-.95,1.46-1.09,2.34-.26,2.52-.12,5.74-.12,7.82-.55,2.65-2.31,4.26-4.86,4.26-1.21,0-4.86,0-4.86-2.21,0-.29,0-.6.26-.73ZM288.6,13.69c1.62,0,2.02-2.94,2.02-4.26,0-.88-1.07-2.81-2.02-2.81h-1.62c-1.48,0-1.88,2.81-1.88,3.84,0,2.34,1.48,3.23,3.5,3.23Z"/>
    <path fill="#fff" d="M299.33,12.37c0-3.38.14-6.03.14-9.12,0-1.04-.95-1.48-.95-2.5v-.44l.14-.16h2.17s.81.29.81.6v10.89c0,1.17,1.07,2.36,1.07,3.38,0,.88-2.02.6-2.17.6-.4,0-2.29.29-2.29-.6,0-1.02.95-1.61,1.07-2.65Z"/>
    <path fill="#fff" d="M311.91,4.57c2.29,0,5.4.44,5.4,3.53,0,1.77-.28,1.9-2.02,1.9h-5.14c-.26.31-.53.75-.53,1.04,0,.88.81,2.65,1.62,2.65h2.02c.93,0,1.74-1.04,2.96-1.04h.69c.12.16.12.44.12.6,0,2.36-3.36,2.5-4.86,2.5h-1.48c-2.57-1.33-3.64-3.09-3.64-6.18s2.43-4.99,4.86-4.99ZM313.12,8.24c.55,0,1.07,0,1.48-.29v-.44c0-1.17-1.48-1.04-2.15-1.04h-1.09c-.53.16-1.21.44-1.21,1.19,0,.29.14.29.41.44,1.09.13,1.62.13,2.57.13Z"/>
  </g>
  <path d="M174.01,119.56"/>
  <g>
    <path fill="#fff" d="M36.03,88.47c-1.2,0-2.3-.17-3.3-.52s-1.83-.79-2.49-1.32l2.54-3.31c.58.37,1.19.72,1.85,1.03.66.31,1.42.47,2.28.47,1.06,0,2.07-.3,3.02-.9s1.58-1.55,1.9-2.85c.21-.88.19-1.83-.06-2.86-.25-1.03-.82-2.33-1.7-3.9l-1.83-3.25c-.91-1.62-1.48-3.1-1.71-4.42-.23-1.33-.2-2.58.09-3.76.48-2,1.52-3.65,3.11-4.96,1.59-1.31,3.52-1.97,5.76-1.97.91,0,1.79.12,2.64.35s1.66.6,2.4,1.11l-2.38,3.09c-.41-.28-.87-.52-1.36-.73-.5-.21-1.08-.31-1.74-.31-1.1,0-2.07.31-2.89.94s-1.37,1.5-1.64,2.62c-.15.61-.16,1.29-.04,2.02s.49,1.68,1.12,2.85l2.63,4.91c.68,1.28,1.21,2.52,1.61,3.72s.39,2.62,0,4.26c-.39,1.6-1.06,2.97-2.02,4.12-.96,1.15-2.12,2.04-3.46,2.66s-2.78.93-4.33.93Z"/>
    <path fill="#fff" d="M54.57,88.09l7.77-32.2c4.71-.2,7.94.72,9.69,2.75,1.75,2.03,2.19,4.85,1.32,8.47-.48,2-1.28,3.81-2.39,5.43-1.11,1.62-2.52,2.96-4.24,4.01-1.72,1.05-3.74,1.73-6.06,2.04l-2.29,9.5h-3.79ZM61.56,74.82c1.78-.15,3.39-.87,4.83-2.18s2.45-3.15,3.02-5.53c.6-2.49.47-4.29-.38-5.41s-2.14-1.75-3.85-1.9l-3.62,15.01Z"/>
    <path fill="#fff" d="M78.79,88.09l7.67-31.8h10.92l-.85,3.51h-7.13l-2.95,12.22h6.11l-.85,3.51h-6.11l-2.18,9.04h7.13l-.85,3.51h-10.92Z"/>
    <path fill="#fff" d="M108.57,88.47c-1.74,0-3.22-.54-4.43-1.63-1.21-1.08-1.97-2.82-2.29-5.2-.32-2.38,0-5.53.94-9.44.96-3.98,2.17-7.16,3.64-9.54,1.46-2.38,3.06-4.1,4.79-5.15,1.72-1.05,3.46-1.58,5.2-1.58.74,0,1.42.07,2.03.2.61.13,1.2.34,1.79.62l-1.63,3.11c-.23-.11-.62-.19-1.17-.25-.55-.06-1.01-.09-1.37-.09-1.13,0-2.28.42-3.46,1.25-1.17.83-2.28,2.18-3.32,4.03-1.04,1.86-1.93,4.32-2.67,7.4-.74,3.06-1.04,5.52-.89,7.38.14,1.86.6,3.2,1.37,4.03.77.83,1.72,1.25,2.85,1.25.36,0,.76-.03,1.21-.09s.81-.14,1.09-.25l.52,3.13c-.72.28-1.41.49-2.09.62-.67.13-1.38.2-2.12.2Z"/>
    <path fill="#fff" d="M125.61,88.09l6.82-28.29h-5.09l.85-3.51h13.97l-.85,3.51h-5.09l-6.83,28.29h-3.79Z"/>
    <path fill="#fff" d="M144.1,88.09l7.77-32.2c3.15-.13,5.62.25,7.43,1.16,1.8.9,3,2.2,3.58,3.9s.6,3.68.05,5.96c-.48,1.97-1.27,3.73-2.38,5.28-1.11,1.55-2.54,2.8-4.27,3.76l2.7,12.14h-4.27l-2.04-10.72c-.72.19-1.48.33-2.28.42l-2.49,10.3h-3.79ZM151.29,74.02c1.78-.15,3.37-.8,4.78-1.97,1.4-1.16,2.38-2.88,2.93-5.14.55-2.26.4-3.98-.45-5.14-.84-1.16-2.12-1.82-3.83-1.97l-3.43,14.21Z"/>
    <path fill="#fff" d="M168.94,88.09l7.67-31.8h10.92l-.85,3.51h-7.13l-2.95,12.22h6.11l-.85,3.51h-6.11l-2.18,9.04h7.13l-.85,3.51h-10.92Z"/>
    <path fill="#fff" d="M191.23,77.49l.81-3.35h8.53l-.81,3.35h-8.53Z"/>
    <path fill="#fff" d="M209.09,88.47c-1.2,0-2.3-.17-3.3-.52s-1.83-.79-2.49-1.32l2.54-3.31c.58.37,1.19.72,1.85,1.03.66.31,1.42.47,2.28.47,1.06,0,2.07-.3,3.02-.9s1.58-1.55,1.9-2.85c.21-.88.19-1.83-.06-2.86-.25-1.03-.82-2.33-1.7-3.9l-1.83-3.25c-.91-1.62-1.48-3.1-1.71-4.42-.23-1.33-.2-2.58.09-3.76.48-2,1.52-3.65,3.11-4.96,1.59-1.31,3.52-1.97,5.76-1.97.91,0,1.79.12,2.64.35s1.66.6,2.4,1.11l-2.38,3.09c-.41-.28-.87-.52-1.36-.73-.5-.21-1.08-.31-1.74-.31-1.1,0-2.07.31-2.89.94s-1.37,1.5-1.64,2.62c-.15.61-.16,1.29-.04,2.02s.49,1.68,1.12,2.85l2.63,4.91c.68,1.28,1.21,2.52,1.61,3.72s.39,2.62,0,4.26c-.39,1.6-1.06,2.97-2.02,4.12-.96,1.15-2.12,2.04-3.46,2.66s-2.78.93-4.33.93Z"/>
    <path fill="#fff" d="M236.12,88.47c-1.74,0-3.22-.54-4.43-1.63-1.21-1.08-1.97-2.82-2.29-5.2-.32-2.38,0-5.53.94-9.44.96-3.98,2.17-7.16,3.64-9.54,1.46-2.38,3.06-4.1,4.79-5.15,1.72-1.05,3.46-1.58,5.2-1.58.74,0,1.42.07,2.03.2.61.13,1.2.34,1.79.62l-1.63,3.11c-.23-.11-.62-.19-1.17-.25-.55-.06-1.01-.09-1.37-.09-1.13,0-2.28.42-3.46,1.25-1.17.83-2.28,2.18-3.32,4.03-1.04,1.86-1.93,4.32-2.67,7.4-.74,3.06-1.04,5.52-.89,7.38.14,1.86.6,3.2,1.37,4.03.77.83,1.72,1.25,2.85,1.25.36,0,.76-.03,1.21-.09s.81-.14,1.09-.25l.52,3.13c-.72.28-1.41.49-2.09.62-.67.13-1.38.2-2.12.2Z"/>
    <path fill="#fff" d="M256.61,88.47c-.96,0-1.9-.24-2.81-.71-.92-.47-1.68-1.3-2.28-2.48-.6-1.19-.92-2.84-.95-4.95-.04-2.11.35-4.82,1.14-8.12.8-3.3,1.72-6.01,2.78-8.13,1.06-2.11,2.17-3.76,3.34-4.95,1.17-1.18,2.33-2.01,3.47-2.48,1.14-.47,2.2-.71,3.16-.71s1.91.24,2.83.71c.92.47,1.67,1.3,2.28,2.48.6,1.19.92,2.84.95,4.95.04,2.12-.34,4.83-1.14,8.13-.8,3.3-1.72,6.01-2.78,8.12-1.06,2.12-2.17,3.77-3.34,4.95-1.17,1.18-2.33,2.01-3.47,2.48-1.15.47-2.21.71-3.18.71ZM257.49,84.8c.77,0,1.62-.37,2.56-1.13s1.87-2.05,2.81-3.88c.94-1.84,1.8-4.36,2.58-7.59.78-3.23,1.14-5.77,1.08-7.6-.06-1.83-.37-3.12-.94-3.87-.57-.75-1.24-1.13-2.01-1.13s-1.61.38-2.54,1.13c-.93.75-1.87,2.04-2.81,3.87s-1.8,4.36-2.58,7.6c-.78,3.22-1.14,5.75-1.08,7.59.06,1.84.37,3.13.94,3.88.57.75,1.24,1.13,1.99,1.13Z"/>
    <path fill="#fff" d="M276.63,88.09l7.77-32.2c4.71-.2,7.93.72,9.69,2.75,1.75,2.03,2.19,4.85,1.32,8.47-.48,2-1.28,3.81-2.39,5.43-1.11,1.62-2.52,2.96-4.24,4.01-1.72,1.05-3.74,1.73-6.06,2.04l-2.29,9.5h-3.79ZM283.62,74.82c1.78-.15,3.39-.87,4.83-2.18s2.45-3.15,3.02-5.53c.6-2.49.47-4.29-.38-5.41-.86-1.12-2.14-1.75-3.85-1.9l-3.62,15.01Z"/>
    <path fill="#fff" d="M300.85,88.09l7.67-31.8h10.92l-.85,3.51h-7.13l-2.95,12.22h6.11l-.85,3.51h-6.11l-2.18,9.04h7.13l-.85,3.51h-10.92Z"/>
  </g>
</svg>