<?xml version="1.0" encoding="UTF-8"?>
<svg id="Layer_1" xmlns="http://www.w3.org/2000/svg" version="1.1" viewBox="0 0 1920 1080">
  <!-- Generator: Adobe Illustrator 29.8.1, SVG Export Plug-In . SVG Version: 2.1.1 Build 2)  -->
  <defs>
    <style>
      .st0 {
        font-family: Voltaire-Regular, Voltaire;
        font-size: 94.8px;
        letter-spacing: .08em;
        stroke: #fff;
        stroke-miterlimit: 10;
        stroke-width: .75px;
      }
    </style>
  </defs>
  <path fill="#fff" d="M1073.27,639.61c-2.31,0-3.48-.04-4.62-.08-1.14-.04-2.22-.08-4.44-.08-2.38,0-3.58-.11-4.75-.21-1.11-.1-2.15-.19-4.31-.19h-9.06c-2.18,0-3.25.07-4.37.14-1.15.07-2.34.15-4.69.15s-3.36.02-4.48.04c-1.14.02-2.29.04-4.58.04s-3.43-.02-4.58-.05c-1.12-.02-2.24-.04-4.48-.04s-3.54-.08-4.69-.15c-1.12-.07-2.19-.14-4.37-.14s-3.36.02-4.48.04c-1.14.02-2.29.04-4.58.04s-3.5-.05-4.64-.11c-1.13-.05-2.21-.1-4.41-.1s-3.29.04-4.42.09c-1.14.05-2.32.1-4.63.1-2.13,0-3.16.11-4.26.23-1.18.13-2.4.26-4.8.26s-3.67-.17-4.87-.33c-1.08-.15-2.1-.29-4.19-.29s-3.17.11-4.27.22c-1.18.12-2.39.25-4.79.25-2.24,0-3.36.02-4.48.04-1.14.02-2.29.04-4.58.04s-3.5-.05-4.64-.11c-1.13-.05-2.21-.1-4.42-.1-2.33,0-3.52-.06-4.66-.12-1.13-.06-2.2-.12-4.4-.12s-3.23.08-4.35.16c-1.16.08-2.36.17-4.72.17-2.22,0-3.3.04-4.44.08-1.14.04-2.31.08-4.62.08s-3.53-.07-4.68-.14c-1.13-.07-2.19-.13-4.38-.13-2.38,0-3.59-.11-4.76-.22-1.11-.1-2.15-.2-4.3-.2s-3.25.07-4.38.14c-1.15.07-2.34.15-4.69.15-2.19,0-3.26.06-4.39.13-1.15.07-2.34.14-4.68.14s-3.53-.07-4.67-.14c-1.13-.07-2.19-.13-4.39-.13s-3.37.02-4.49.03c-1.14.02-2.28.03-4.57.03s-3.38.01-4.5.03c-1.14.01-2.28.03-4.56.03s-3.44-.03-4.59-.05c-1.12-.02-2.24-.05-4.48-.05s-3.5-.05-4.64-.1c-1.14-.05-2.21-.09-4.43-.09s-3.35.03-4.46.06c-1.15.03-2.3.06-4.6.06s-3.48-.04-4.61-.07c-1.15-.04-2.23-.07-4.46-.07s-3.14.13-4.23.26c-1.19.15-2.42.3-4.84.3-1.38,0-2.5-1.12-2.5-2.5s1.12-2.5,2.5-2.5c2.12,0,3.14-.13,4.23-.26,1.19-.15,2.42-.3,4.84-.3s3.48.04,4.61.07c1.15.04,2.23.07,4.46.07s3.35-.03,4.47-.06c1.15-.03,2.3-.06,4.6-.06s3.5.05,4.64.1c1.14.05,2.21.09,4.43.09s3.44.03,4.59.05c1.12.02,2.24.05,4.48.05s3.38-.01,4.5-.03c1.14-.01,2.28-.03,4.56-.03s3.37-.02,4.5-.03c1.14-.02,2.28-.03,4.57-.03s3.53.07,4.67.14c1.13.07,2.19.13,4.39.13s3.26-.06,4.39-.13c1.15-.07,2.34-.14,4.68-.14,2.19,0,3.25-.07,4.38-.14,1.15-.07,2.34-.15,4.69-.15s3.59.11,4.76.22c1.11.1,2.15.2,4.3.2,2.34,0,3.53.07,4.68.14,1.13.07,2.19.13,4.38.13s3.3-.04,4.44-.08c1.14-.04,2.31-.08,4.62-.08,2.17,0,3.23-.08,4.35-.16,1.16-.08,2.36-.17,4.72-.17s3.52.06,4.66.12c1.13.06,2.2.12,4.4.12,2.32,0,3.5.05,4.64.11,1.13.05,2.21.1,4.42.1s3.36-.02,4.48-.04c1.14-.02,2.29-.04,4.58-.04,2.13,0,3.17-.11,4.27-.22,1.18-.12,2.39-.25,4.79-.25s3.67.17,4.87.33c1.08.15,2.1.29,4.19.29s3.16-.11,4.26-.23c1.18-.13,2.4-.26,4.8-.26,2.21,0,3.29-.04,4.43-.09,1.14-.05,2.32-.1,4.63-.1s3.5.05,4.64.11c1.13.05,2.21.1,4.41.1s3.36-.02,4.48-.04c1.14-.02,2.29-.04,4.58-.04s3.54.08,4.69.15c1.12.07,2.19.14,4.37.14s3.43.02,4.58.05c1.12.02,2.24.04,4.48.04s3.36-.02,4.48-.04c1.14-.02,2.29-.04,4.58-.04s3.25-.07,4.37-.14c1.15-.07,2.34-.15,4.69-.15h9.06c2.38,0,3.58.11,4.75.21,1.11.1,2.15.19,4.31.19,2.31,0,3.48.04,4.62.08,1.14.04,2.22.08,4.44.08s3.2-.09,4.31-.19c1.17-.1,2.38-.21,4.75-.21,2.19,0,3.25-.06,4.38-.13,1.15-.07,2.34-.14,4.68-.14s3.43.02,4.57.04c1.12.02,2.24.04,4.49.04,2.36,0,3.56.09,4.72.18,1.12.09,2.17.17,4.33.17,2.29,0,3.43.02,4.58.04,1.12.02,2.24.04,4.48.04,1.38,0,2.5,1.12,2.5,2.5s-1.12,2.5-2.5,2.5c-2.29,0-3.43-.02-4.58-.04-1.12-.02-2.24-.04-4.48-.04-2.36,0-3.56-.09-4.72-.18-1.12-.09-2.17-.17-4.33-.17-2.29,0-3.43-.02-4.57-.04-1.12-.02-2.24-.04-4.49-.04s-3.25.06-4.38.13c-1.15.07-2.34.14-4.68.14-2.15,0-3.2.09-4.31.19-1.17.1-2.38.21-4.75.21Z"/>
  <path fill="#fff" d="M1100.43,526.64c-2.43,0-3.66-.16-4.85-.31-1.08-.14-2.11-.27-4.21-.27s-3.27.06-4.4.12c-1.15.06-2.33.13-4.67.13-2.2,0-3.27.06-4.4.12-1.15.06-2.33.12-4.67.12s-3.44-.03-4.59-.06c-1.12-.03-2.24-.05-4.47-.05s-3.51-.06-4.65-.11c-1.13-.05-2.2-.11-4.41-.11-2.33,0-3.52-.06-4.66-.12-1.13-.06-2.2-.12-4.4-.12s-3.11.14-4.19.29c-1.2.17-2.44.34-4.88.34-2.3,0-3.45-.03-4.6-.06-1.12-.03-2.23-.06-4.46-.06s-3.43-.02-4.57-.03c-1.12-.02-2.25-.03-4.5-.03s-3.48-.04-4.61-.08c-1.14-.04-2.22-.07-4.45-.07s-3.27.05-4.41.11c-1.14.06-2.33.11-4.65.11s-3.39,0-4.52,0c-1.13,0-2.27,0-4.54,0s-3.45-.03-4.6-.06c-1.12-.03-2.23-.06-4.47-.06s-3.26.06-4.38.13c-1.15.07-2.34.14-4.67.14s-3.65-.15-4.84-.3c-1.09-.13-2.11-.26-4.22-.26s-3.26.06-4.39.12c-1.15.07-2.33.13-4.67.13s-3.56-.09-4.72-.18c-1.11-.09-2.17-.17-4.34-.17s-3.35.03-4.46.06c-1.15.03-2.3.06-4.59.06s-3.26.06-4.39.13c-1.15.07-2.34.13-4.67.13s-3.44-.03-4.58-.05c-1.12-.02-2.24-.05-4.47-.05s-3.38,0-4.51.02c-1.14,0-2.27.02-4.55.02s-3.23.08-4.35.16c-1.16.08-2.35.17-4.71.17s-3.43-.02-4.57-.04c-1.12-.02-2.25-.04-4.49-.04s-3.41,0-4.54-.01c-1.13,0-2.26-.01-4.52-.01-2.4,0-3.63-.14-4.81-.27-1.09-.12-2.13-.24-4.25-.24s-3.15.12-4.24.25c-1.19.14-2.41.29-4.82.29s-3.56-.09-4.72-.18c-1.11-.09-2.17-.17-4.33-.17-2.32,0-3.5-.05-4.63-.1-1.14-.05-2.21-.09-4.43-.09s-3.3.04-4.44.08c-1.13.04-2.31.08-4.61.08-2.18,0-3.25.07-4.37.14-1.15.07-2.34.15-4.69.15s-3.53-.07-4.68-.14c-1.13-.07-2.19-.13-4.38-.13-2.33,0-3.51-.06-4.65-.11-1.13-.06-2.2-.11-4.41-.11s-3.34.03-4.46.07c-1.13.03-2.3.07-4.6.07-1.38,0-2.5-1.12-2.5-2.5s1.12-2.5,2.5-2.5c2.23,0,3.34-.03,4.46-.07,1.13-.03,2.3-.07,4.6-.07s3.51.06,4.65.11c1.13.06,2.2.11,4.41.11,2.34,0,3.53.07,4.68.14,1.13.07,2.19.13,4.38.13s3.25-.07,4.37-.14c1.15-.07,2.34-.15,4.69-.15,2.22,0,3.3-.04,4.44-.08,1.13-.04,2.31-.08,4.61-.08s3.49.05,4.63.1c1.14.05,2.21.09,4.43.09,2.36,0,3.56.09,4.72.18,1.11.09,2.17.17,4.33.17s3.15-.12,4.24-.25c1.19-.14,2.41-.29,4.82-.29s3.63.14,4.81.27c1.09.12,2.13.24,4.25.24,2.27,0,3.41,0,4.54.01,1.13,0,2.26.01,4.52.01s3.43.02,4.57.04c1.12.02,2.25.04,4.49.04s3.23-.08,4.35-.16c1.16-.08,2.35-.17,4.71-.17s3.38,0,4.51-.02c1.14,0,2.27-.02,4.55-.02s3.44.03,4.58.05c1.12.02,2.24.05,4.47.05s3.26-.06,4.39-.13c1.15-.07,2.34-.13,4.67-.13s3.35-.03,4.46-.06c1.15-.03,2.3-.06,4.59-.06s3.56.09,4.72.18c1.11.09,2.17.17,4.34.17s3.26-.06,4.39-.12c1.15-.07,2.33-.13,4.67-.13s3.65.15,4.84.3c1.09.13,2.11.26,4.22.26s3.26-.06,4.38-.13c1.15-.07,2.34-.14,4.67-.14s3.45.03,4.59.06c1.12.03,2.23.06,4.47.06s3.39,0,4.52,0c1.13,0,2.27,0,4.54,0s3.27-.05,4.41-.11c1.14-.06,2.33-.11,4.65-.11s3.48.04,4.61.08c1.14.04,2.22.07,4.45.07s3.43.02,4.57.03c1.12.02,2.25.03,4.5.03s3.45.03,4.6.06c1.12.03,2.23.06,4.46.06,2.09,0,3.11-.14,4.19-.29,1.2-.17,2.44-.34,4.88-.34s3.52.06,4.66.12c1.13.06,2.2.12,4.4.12,2.33,0,3.51.06,4.65.11,1.13.05,2.2.11,4.41.11s3.44.03,4.59.06c1.12.03,2.24.05,4.47.05s3.27-.06,4.4-.12c1.15-.06,2.33-.12,4.67-.12,2.2,0,3.27-.06,4.4-.12,1.15-.06,2.33-.13,4.67-.13s3.66.16,4.85.31c1.08.14,2.11.27,4.21.27,2.23,0,3.35-.03,4.47-.06,1.15-.03,2.3-.06,4.6-.06s3.43.01,4.57.03c1.12.01,2.25.03,4.5.03,1.38,0,2.5,1.12,2.5,2.5s-1.12,2.5-2.5,2.5c-2.28,0-3.43-.01-4.57-.03-1.12-.01-2.25-.03-4.5-.03s-3.35.03-4.47.06c-1.15.03-2.3.06-4.6.06Z"/>
</svg>