<?xml version="1.0" encoding="UTF-8"?>
<svg id="Layer_1" xmlns="http://www.w3.org/2000/svg" version="1.1" viewBox="0 0 283.53 212.5">
  <!-- Generator: Adobe Illustrator 29.8.1, SVG Export Plug-In . SVG Version: 2.1.1 Build 2)  -->
  <path fill="#ffffff" d="M127.26,13.33c2.91-3,2.8-3.1,5.71-6.1,2.91-3,2.71-3.19,5.62-6.19,1.17-1.21,3.37-1.44,4.58-.27,3.18,3.09,2.84,3.44,6.02,6.53s3.51,2.75,6.69,5.84c1.21,1.17,1.08,3.37-.09,4.58-1.17,1.21-3.36,1.4-4.57.23q-2.64-2.56-5.28-5.1c-2.64-2.56-1.39-4.87-5.07-4.94-3.42-.07-2.18,2.25-4.56,4.7-2.38,2.45-2.65,2.19-5.03,4.64-1.17,1.21-2.75,1.04-3.96-.13s-1.24-2.57-.07-3.77Z"/>
  <path fill="#ffffff" d="M155.98,199.16c-2.91,3-2.8,3.1-5.71,6.1-2.91,3-2.71,3.19-5.62,6.19-1.17,1.21-3.37,1.44-4.58.27-3.18-3.09-2.84-3.44-6.02-6.53-3.18-3.09-3.51-2.75-6.69-5.84-1.21-1.17-1.08-3.37.09-4.58s3.36-1.4,4.57-.23q2.64,2.56,5.28,5.1c2.64,2.56,1.39,4.87,5.07,4.94,3.42.07,2.18-2.25,4.56-4.7,2.38-2.45,2.65-2.19,5.03-4.64,1.17-1.21,2.75-1.04,3.96.13s1.24,2.57.07,3.77Z"/>
  <path fill="#ffffff" d="M270.2,130.1c3,2.91,3.1,2.8,6.1,5.71,3,2.91,3.19,2.71,6.19,5.62,1.21,1.17,1.44,3.37.27,4.58-3.09,3.18-3.44,2.84-6.53,6.02-3.09,3.18-2.75,3.51-5.84,6.69-1.17,1.21-3.37,1.08-4.58-.09-1.21-1.17-1.4-3.36-.23-4.57q2.56-2.64,5.1-5.28c2.56-2.64,4.87-1.39,4.94-5.07.07-3.42-2.25-2.18-4.7-4.56-2.45-2.38-2.19-2.65-4.64-5.03-1.21-1.17-1.04-2.75.13-3.96,1.17-1.21,2.57-1.24,3.77-.07Z"/>
  <path fill="#ffffff" d="M13.33,158.83c-3-2.91-3.1-2.8-6.1-5.71-3-2.91-3.19-2.71-6.19-5.62-1.21-1.17-1.44-3.37-.27-4.58,3.09-3.18,3.44-2.84,6.53-6.02,3.09-3.18,2.75-3.51,5.84-6.69,1.17-1.21,3.37-1.08,4.58.09,1.21,1.17,1.4,3.36.23,4.57q-2.56,2.64-5.1,5.28c-2.56,2.64-4.87,1.39-4.94,5.07-.07,3.42,2.25,2.18,4.7,4.56,2.45,2.38,2.19,2.65,4.64,5.03,1.21,1.17,1.04,2.75-.13,3.96-1.17,1.21-2.57,1.24-3.77.07Z"/>
  <g>
    <path fill="#ffffff" d="M141.77,101.05c-3.47,0-6.61-.93-10.06-2.05-3.4-1.1-6.47-2.64-9.12-4.57-2.32-1.69-5.27-4.02-7.47-7.04-2.09-2.88-3.31-6.32-4.28-9.32-1.02-3.13-1.51-6.42-1.51-10.05,0-4.18.41-7.3,1.32-10.11,1.13-3.48,2.67-6.57,4.57-9.18,2.44-3.36,4.7-5.74,7.1-7.48,2.56-1.86,5.57-2.82,8.48-3.76l.96-.31c3.64-1.18,6.83-1.73,10.02-1.73,3.73,0,7.07.08,10.22,1.11,3.12,1.01,6.2,2.62,9.17,4.78,2.86,2.08,4.9,4.89,6.88,7.6l.35.48c1.87,2.56,3.79,5.2,4.83,8.39,1,3.08,1.51,6.52,1.51,10.22,0,3.27-.57,6.69-1.7,10.16-1.12,3.46-3.17,6.42-4.99,8.93-2.25,3.09-4.3,5.55-6.96,7.49-2.7,1.96-5.78,3.51-9.18,4.62-3.83,1.24-7.05,1.82-10.13,1.82ZM141.77,38.46c-2.87,0-5.76.5-9.09,1.59l-.97.31c-2.81.9-5.46,1.75-7.63,3.33-2.14,1.56-4.18,3.72-6.44,6.82-1.72,2.36-3.11,5.16-4.14,8.34-.81,2.5-1.17,5.34-1.17,9.19,0,3.31.45,6.29,1.37,9.12.94,2.91,2.02,5.96,3.85,8.48,1.95,2.68,4.66,4.82,6.81,6.38,2.39,1.74,5.18,3.13,8.28,4.14,3.2,1.04,6.1,1.9,9.14,1.9,2.76,0,5.68-.53,9.21-1.68,3.09-1,5.9-2.41,8.34-4.19,2.34-1.71,4.21-3.96,6.3-6.83,1.69-2.32,3.58-5.05,4.56-8.09,1.03-3.17,1.55-6.27,1.55-9.23,0-3.38-.46-6.51-1.36-9.29-.89-2.73-2.67-5.18-4.4-7.54l-.35-.49c-1.84-2.52-3.74-5.14-6.22-6.94-2.71-1.97-5.51-3.43-8.33-4.35-2.73-.89-5.83-.96-9.3-.96Z"/>
    <path fill="#ffffff" d="M136.05,82.64c-5.94,0-3.58-18.75-9.78-25v-.78c0-2.58,4.76-1.56,5.98-1.56.72,0,2.15,0,2.15,1.05,0,1.56-1.22,2.62-1.22,3.91,0,1.05,1.43,9.88,2.65,9.88,2.61,0,2.15-14.57,5.48-14.57,5.73,0,4.55,14.57,6.91,14.57,1.43,0,2.4-8.05,2.4-9.88,0-1.29-.72-2.62-.72-3.91v-.51l.72-.27h5.98c.72,0,.93.51.93,1.05,0,2.07-2.15,3.63-2.61,5.7-1.9,6.52-1.9,14.34-5.26,20.31-.21.27-.93.27-1.18.27-4.76,0-2.4-13.55-6.7-13.55-2.61,0-1.9,13.28-5.73,13.28Z"/>
    <path fill="#ffffff" d="M65.69,177.29c-3.34,0-6.75-.56-10.13-1.65-3.79-1.23-6.82-2.7-9.27-4.48-2.62-1.91-5.05-4.38-7.21-7.36-2.01-2.76-3.15-5.98-4.23-9.31-1.14-3.52-1.7-6.8-1.7-10.02s.55-6.54,1.68-10.03c1.01-3.1,2.23-6.37,4.33-9.25,1.84-2.52,4.24-4.85,7.35-7.12,2.56-1.86,5.55-3.33,9.14-4.5,2.84-.92,6.25-1.87,10.04-1.87,3.32,0,6.72.56,10.1,1.66,3.93,1.28,6.87,2.68,9.27,4.43,2.89,2.1,5.02,4.87,6.96,7.54,1.66,2.28,3.71,5.36,4.89,8.99,1.09,3.37,1.65,6.79,1.65,10.15,0,3.58-.99,6.92-2,10.03-1.02,3.14-2.25,6.43-4.31,9.27-2.11,2.9-4.54,5.36-7.22,7.32-2.49,1.81-5.51,3.28-9.23,4.49-3.55,1.15-6.86,1.72-10.11,1.72ZM65.69,114.71c-3.36,0-6.49.87-9.11,1.72-3.29,1.07-6,2.4-8.3,4.07-2.86,2.08-5.04,4.19-6.69,6.46-1.85,2.55-2.97,5.55-3.9,8.41-1.03,3.18-1.53,6.16-1.53,9.1s.51,5.88,1.55,9.09c1.04,3.21,2.05,6.07,3.8,8.47,1.98,2.72,4.19,4.98,6.55,6.7,2.19,1.59,4.94,2.92,8.43,4.05,3.08,1,6.17,1.5,9.2,1.5s5.93-.51,9.18-1.57c3.42-1.11,6.17-2.44,8.39-4.06,2.43-1.77,4.64-4.01,6.56-6.66,1.82-2.5,2.94-5.53,3.88-8.43.98-3.01,1.85-5.96,1.85-9.11s-.51-6.15-1.5-9.22c-1.05-3.23-2.94-6.05-4.46-8.15-1.8-2.47-3.76-5.03-6.3-6.88-2.14-1.55-4.82-2.83-8.43-4-3.09-1-6.18-1.51-9.18-1.51Z"/>
    <path fill="#ffffff" d="M54.22,149.87c1.3-2.02,7.59-15.84,7.66-17.68.02-.51-.45-1.31-.42-2.09.07-1.83,3.18-1.44,4.36-1.39.25,0,1.22.05,1.43.06,1.91.58,7.8,20.09,8.93,22.25.87,1.6,2.76,2.69,2.67,4.8-.03.78-.05,1.29-1.02,1.25l-5.47-.22c-.72-.03-1.21-.32-1.17-1.1.04-1.01.57-1.77.61-2.83s-.83-3.44-2.01-3.48l-9.3-.37c-1.68-.07-2.24,2.26-2.29,3.58-.03.78.16,1.3.13,2.08-.07,1.83-2.21,1.48-3.39,1.43s-4.31.34-4.24-1.46c.08-2.11,2.52-3.03,3.53-4.83ZM63.53,144.77l3.33.13c.97.04,1.05-2.03,1.07-2.58.03-.78-.54-4.44-1.51-4.48l-2.15-.08c-.97-.04-1.82,3.33-1.86,4.34-.03.78.15,2.62,1.11,2.66Z"/>
    <path fill="#ffffff" d="M141.77,177.03c-3.74,0-7.04-.48-10.1-1.48-2.9-.94-5.75-2.47-8.98-4.83-3.26-2.37-5.6-4.61-7.37-7.04-1.83-2.52-3.89-5.5-5.02-9-.94-2.88-1.39-6.23-1.39-10.23,0-3.69,1.01-7.12,1.96-10.04l.05-.15c1.03-3.17,2.1-6.46,4.12-9.23,1.95-2.67,4.42-5.11,7.36-7.25,3.01-2.19,6.54-3.49,9.29-4.38,3.23-1.05,6.63-1.58,10.09-1.58,3.82,0,7.13.47,10.14,1.45,3.26,1.06,6.33,2.63,9.14,4.67,3,2.18,5.47,4.6,7.35,7.18,1.79,2.46,3.25,5.48,4.47,9.24.94,2.89,1.37,6.1,1.37,10.1s-.41,7.31-1.32,10.12c-1.13,3.5-2.67,6.59-4.57,9.19-2.42,3.33-4.68,5.7-7.12,7.48-2.56,1.86-5.68,3.4-9.28,4.56-3.29,1.07-6.84,1.22-10.19,1.22ZM141.77,114.82c-3.15,0-6.23.48-9.17,1.44-2.54.82-5.79,2.02-8.45,3.96-2.64,1.92-4.96,4.2-6.7,6.59-1.74,2.39-2.69,5.31-3.69,8.4l-.05.15c-.88,2.71-1.82,5.86-1.82,9.12,0,3.68.41,6.72,1.24,9.3,1,3.07,2.89,5.82,4.59,8.16,1.58,2.17,3.71,4.2,6.71,6.38,2.97,2.16,5.55,3.56,8.14,4.4,2.76.9,5.76,1.33,9.18,1.33,3.1,0,6.37-.13,9.26-1.07,3.3-1.07,6.14-2.46,8.44-4.14,2.17-1.58,4.23-3.75,6.46-6.82,1.71-2.35,3.1-5.16,4.14-8.35.81-2.5,1.17-5.33,1.17-9.19s-.39-6.6-1.23-9.18c-1.12-3.46-2.44-6.2-4.04-8.4-1.69-2.33-3.94-4.52-6.69-6.52-2.55-1.86-5.34-3.28-8.3-4.24-2.7-.88-5.71-1.3-9.21-1.3Z"/>
    <path fill="#ffffff" d="M133.32,150.51c.72,0,1.68.23,2.4.51,2.4,2.34,3.83,3.12,6.7,3.12s4.51-1.56,4.51-4.69v-.27c-2.87-3.91-15.04-3.36-15.04-8.83v-4.96c0-4.41,6.23-5.2,9.1-5.2h1.65c2.4.78,4.55,1.8,6.95,2.34l.21.23v1.05c0,1.56-.21,3.12-1.9,3.12-2.61,0-4.76-2.85-7.88-2.85-2.61,0-4.05,1.02-4.05,3.91,0,5.2,15.26,1.56,15.26,11.72,0,5.98-4.05,8.32-9.06,8.32-1.68,0-10.49-1.29-10.49-4.41,0-1.56.21-3.12,1.65-3.12Z"/>
    <path fill="#ffffff" d="M217.84,177.13c-3.37,0-6.94-.15-10.22-1.21-3.09-1-6.17-2.61-9.16-4.79-2.82-2.05-4.97-4.86-6.93-7.55-2.42-3.33-3.92-6.1-4.86-8.99-.88-2.7-1.88-6.29-1.88-10.13,0-3.3.98-6.29,1.93-9.18l.28-.84c1.14-3.5,2.62-6.48,4.53-9.1,2.14-2.94,4.48-5.32,7.15-7.26,2.42-1.76,5.44-3.96,8.94-5.1,3.29-1.07,6.86-1.16,10.23-1.16,3.16,0,6.35.56,10.03,1.75,3.24,1.05,6.2,2.57,9.04,4.63l.27.19c2.63,1.92,5.36,3.9,7.36,6.65,1.74,2.39,3.15,5.34,4.43,9.29,1.01,3.12,1.53,6.53,1.53,10.11,0,3.92-.2,7.16-1.2,10.22-1.09,3.35-3.05,6.3-5.01,9-2.05,2.81-4.48,5.25-7.22,7.25-2.68,1.95-5.62,3.91-9,5-3.4,1.1-7.06,1.2-10.22,1.2ZM217.84,114.83c-3.13,0-6.43.08-9.3,1.01-3.05.99-5.85,3.03-8.1,4.67-2.41,1.75-4.53,3.91-6.49,6.6-1.72,2.36-3.06,5.06-4.1,8.26l-.28.85c-.88,2.67-1.78,5.42-1.78,8.25,0,3.42.93,6.71,1.74,9.2.84,2.57,2.2,5.09,4.43,8.15,1.9,2.61,3.8,5.09,6.27,6.89,2.73,1.99,5.53,3.46,8.32,4.36,2.88.93,6.17,1.06,9.29,1.06,3.64,0,6.62-.18,9.3-1.05,2.98-.97,5.69-2.77,8.17-4.58,2.49-1.81,4.7-4.03,6.56-6.59,2.1-2.88,3.68-5.37,4.58-8.16.87-2.69,1.05-5.66,1.05-9.29,0-3.27-.46-6.36-1.38-9.19-1.18-3.64-2.45-6.32-4-8.45-1.73-2.37-4.26-4.21-6.7-5.99l-.27-.19c-2.58-1.88-5.26-3.25-8.2-4.21-3.38-1.1-6.27-1.61-9.11-1.61Z"/>
    <path fill="#ffffff" d="M208.78,155.75c.15-3.7-.2-7.32-.57-11.21-.27-2.84-.8-5.69-1.07-8.53-.81-.98-2.26-1.08-2.44-2.91-.05-.51,1.6-.94,1.82-.96l13.33-1.28c6.63-.63,10.75,7.09,11.32,13.04.7,7.27-2.19,12.49-8.67,14.68-1.21.12-7.35.98-8.53,1.09,0,0-.96.09-1.21.12-.71.07-5.2.5-5.33-.78-.13-1.32.7-2.42,1.34-3.27ZM215,155.39c.46-.04,2.14-.21,2.6-.25,7.13-.68,9.68-4.07,8.94-11.84-.37-3.89-3.42-8.31-7.53-8.42-.46.04-2.14.2-2.6.25-1.68.16-4.58-.07-4.57,2.28.14,4.14.42,7.02.77,10.64.15,1.56-.22,7.87,2.39,7.34Z"/>
  </g>
</svg>