<svg width="164" height="44" viewBox="0 0 164 44" fill="none" xmlns="http://www.w3.org/2000/svg">
<g clip-path="url(#clip0_73_1102)">
<mask id="mask0_73_1102" style="mask-type:alpha" maskUnits="userSpaceOnUse" x="14" y="21" width="20" height="11">
<rect x="14.5565" y="21.8459" width="18.9" height="9.45" fill="#D9D9D9"/>
</mask>
<g mask="url(#mask0_73_1102)">
<path d="M14.5566 21.8456C19.7756 21.8455 24.0063 17.6148 24.0065 12.3959C24.0066 17.6148 28.2376 21.8456 33.4565 21.8457C28.2374 21.8457 24.0064 26.0766 24.0064 31.2957C24.0064 26.0766 19.7755 21.8459 14.5565 21.8459L14.5566 21.8456Z" fill="url(#paint0_linear_73_1102)"/>
</g>
<path d="M23.9927 3.48462C23.9922 3.48878 23.3928 8.40121 18.509 13.2851C16.0938 15.7003 13.4149 17.3237 11.3234 18.3485C14.074 17.7746 17.6427 17.4279 21.5424 17.4279C30.2408 17.4279 37.2922 19.1517 37.2924 21.278C37.2923 23.3095 30.8551 24.9733 22.6946 25.1175C23.1235 25.1227 23.5563 25.1257 23.9925 25.1257C34.6239 25.1257 43.2426 23.5586 43.2426 21.6256C43.2423 20.8516 41.7888 20.3721 39.5202 19.5569C37.1625 18.7097 33.2762 17.0851 29.4762 13.2851C24.5969 8.40577 23.9943 3.49794 23.9927 3.48462Z" fill="url(#paint1_linear_73_1102)"/>
<path d="M24.0062 40.5143C24.0067 40.5101 24.6061 35.5977 29.49 30.7138C31.9051 28.2987 34.584 26.6752 36.6756 25.6504C33.9249 26.2243 30.3563 26.571 26.4566 26.571C17.7582 26.571 10.7067 24.8472 10.7066 22.7209C10.7066 20.6894 17.1438 19.0256 25.3043 18.8814C24.8754 18.8762 24.4426 18.8732 24.0065 18.8732C13.375 18.8732 4.75636 20.4403 4.75635 22.3733C4.75658 23.1473 6.2082 23.6322 8.47869 24.442C10.895 25.3038 14.7227 26.9138 18.5227 30.7138C23.4021 35.5931 24.0046 40.501 24.0062 40.5143Z" fill="url(#paint2_linear_73_1102)"/>
<mask id="mask1_73_1102" style="mask-type:alpha" maskUnits="userSpaceOnUse" x="14" y="12" width="20" height="10">
<rect x="14.5565" y="12.3959" width="18.9" height="9.45" fill="#D9D9D9"/>
</mask>
<g mask="url(#mask1_73_1102)">
<path d="M14.5566 21.8456C19.7756 21.8455 24.0063 17.6148 24.0065 12.3959C24.0066 17.6148 28.2376 21.8456 33.4565 21.8457C28.2374 21.8457 24.0064 26.0766 24.0064 31.2957C24.0064 26.0766 19.7755 21.8459 14.5565 21.8459L14.5566 21.8456Z" fill="url(#paint3_linear_73_1102)"/>
</g>
</g>
<g clip-path="url(#clip1_73_1102)">
<path d="M52.1088 13.2L58.1504 27.4848L64.1408 13.2H66.6496L58.7648 31.632H57.536L49.6 13.2H52.1088Z" fill="#121316"/>
<path d="M68.6348 31.632V18.832H70.9388V31.632H68.6348ZM69.7868 17.2192C69.4113 17.2192 69.087 17.0912 68.814 16.8352C68.558 16.5621 68.43 16.2293 68.43 15.8368C68.43 15.4613 68.558 15.1456 68.814 14.8896C69.087 14.6336 69.4113 14.5056 69.7868 14.5056C70.1452 14.5056 70.4609 14.6421 70.734 14.9152C71.007 15.1712 71.1436 15.4784 71.1436 15.8368C71.1436 16.2293 71.007 16.5621 70.734 16.8352C70.4609 17.0912 70.1452 17.2192 69.7868 17.2192Z" fill="#121316"/>
<path d="M75.9458 28.3552C75.9458 28.7989 76.1847 29.1232 76.6626 29.328C77.1575 29.5328 77.6524 29.6352 78.1474 29.6352C78.7618 29.6352 79.3335 29.4986 79.8626 29.2256C80.3916 28.9525 80.6562 28.5258 80.6562 27.9456C80.6562 27.1093 79.9564 26.5632 78.557 26.3072C76.8162 25.8805 75.5959 25.3514 74.8962 24.72C74.1964 24.0714 73.8466 23.2352 73.8466 22.2112C73.8466 21.6138 74.0258 21.0336 74.3842 20.4704C74.7426 19.9072 75.2375 19.4549 75.869 19.1136C76.5175 18.7552 77.2428 18.576 78.045 18.576C78.9154 18.576 79.6919 18.7296 80.3746 19.0368C81.0743 19.3269 81.6204 19.745 82.013 20.2912C82.4055 20.8202 82.6018 21.4261 82.6018 22.1088H80.349C80.349 21.7333 80.1356 21.4261 79.709 21.1872C79.2823 20.9482 78.7276 20.8288 78.045 20.8288C77.6695 20.8288 77.3367 20.9056 77.0466 21.0592C76.7564 21.1957 76.526 21.3749 76.3554 21.5968C76.1847 21.8186 76.0994 22.0234 76.0994 22.2112C76.0994 22.5013 76.1676 22.7488 76.3042 22.9536C76.4578 23.1413 76.7479 23.329 77.1746 23.5168C77.6012 23.7045 78.2156 23.9008 79.0178 24.1056C80.2978 24.3445 81.262 24.8053 81.9106 25.488C82.5762 26.1706 82.909 26.9898 82.909 27.9456C82.909 28.9013 82.6274 29.6778 82.0642 30.2752C81.501 30.8554 80.8439 31.2736 80.093 31.5296C79.3591 31.7685 78.7106 31.888 78.1474 31.888C77.55 31.888 76.91 31.777 76.2274 31.5552C75.5447 31.3333 74.9474 30.9578 74.4354 30.4288C73.9404 29.8997 73.693 29.2085 73.693 28.3552H75.9458Z" fill="#121316"/>
<path d="M85.6848 31.632V18.832H87.9888V31.632H85.6848ZM86.8368 17.2192C86.4613 17.2192 86.137 17.0912 85.864 16.8352C85.608 16.5621 85.48 16.2293 85.48 15.8368C85.48 15.4613 85.608 15.1456 85.864 14.8896C86.137 14.6336 86.4613 14.5056 86.8368 14.5056C87.1952 14.5056 87.5109 14.6421 87.784 14.9152C88.057 15.1712 88.1936 15.4784 88.1936 15.8368C88.1936 16.2293 88.057 16.5621 87.784 16.8352C87.5109 17.0912 87.1952 17.2192 86.8368 17.2192Z" fill="#121316"/>
<path d="M97.4246 29.6352C98.2267 29.6352 98.9606 29.4389 99.6262 29.0464C100.309 28.6538 100.838 28.1162 101.213 27.4336C101.606 26.7509 101.802 26 101.802 25.1808C101.802 24.3786 101.606 23.6448 101.213 22.9792C100.838 22.3136 100.317 21.793 99.6518 21.4176C98.9862 21.025 98.2438 20.8288 97.4246 20.8288C96.6054 20.8288 95.8544 21.025 95.1718 21.4176C94.5062 21.793 93.9771 22.3136 93.5846 22.9792C93.192 23.6448 92.9958 24.3786 92.9958 25.1808C92.9958 26 93.192 26.7509 93.5846 27.4336C93.9771 28.1162 94.5062 28.6538 95.1718 29.0464C95.8544 29.4389 96.6054 29.6352 97.4246 29.6352ZM97.4246 31.888C96.1958 31.888 95.0694 31.5893 94.0454 30.992C93.0214 30.3946 92.2107 29.584 91.6134 28.56C91.0331 27.536 90.743 26.4096 90.743 25.1808C90.743 23.969 91.0331 22.8597 91.6134 21.8528C92.2107 20.8458 93.0214 20.0522 94.0454 19.472C95.0694 18.8746 96.1958 18.576 97.4246 18.576C98.6363 18.576 99.7456 18.8746 100.753 19.472C101.777 20.0522 102.579 20.8458 103.159 21.8528C103.756 22.8597 104.055 23.969 104.055 25.1808C104.055 26.4096 103.756 27.536 103.159 28.56C102.579 29.584 101.777 30.3946 100.753 30.992C99.7456 31.5893 98.6363 31.888 97.4246 31.888Z" fill="#121316"/>
<path d="M106.509 31.632V24.592C106.509 23.4997 106.773 22.4928 107.302 21.5712C107.848 20.6496 108.582 19.9242 109.504 19.3952C110.425 18.849 111.441 18.576 112.55 18.576C113.642 18.576 114.649 18.849 115.571 19.3952C116.493 19.9242 117.218 20.6496 117.747 21.5712C118.293 22.4928 118.566 23.4997 118.566 24.592V31.632H116.313V24.592C116.313 23.8922 116.143 23.2608 115.801 22.6976C115.477 22.1173 115.025 21.665 114.445 21.3408C113.881 20.9994 113.25 20.8288 112.55 20.8288C111.85 20.8288 111.21 20.9994 110.63 21.3408C110.05 21.665 109.589 22.1173 109.248 22.6976C108.924 23.2778 108.761 23.9093 108.761 24.592V31.632H106.509Z" fill="#121316"/>
<path d="M127.898 29.6608C128.683 29.6608 129.409 29.4645 130.074 29.072C130.757 28.6794 131.295 28.1504 131.687 27.4848C132.08 26.8021 132.276 26.0597 132.276 25.2576C132.276 24.4725 132.08 23.7472 131.687 23.0816C131.295 22.416 130.757 21.8869 130.074 21.4944C129.409 21.1018 128.683 20.9056 127.898 20.9056C127.113 20.9056 126.379 21.1018 125.697 21.4944C125.031 21.8869 124.502 22.416 124.11 23.0816C123.717 23.7472 123.521 24.4725 123.521 25.2576C123.521 26.0597 123.717 26.8021 124.11 27.4848C124.502 28.1504 125.031 28.6794 125.697 29.072C126.362 29.4645 127.096 29.6608 127.898 29.6608ZM127.898 31.9136C126.704 31.9136 125.594 31.6149 124.57 31.0176C123.563 30.4202 122.761 29.6181 122.164 28.6112C121.567 27.5872 121.268 26.4693 121.268 25.2576C121.268 24.08 121.567 22.9877 122.164 21.9808C122.761 20.9568 123.563 20.1461 124.57 19.5488C125.594 18.9514 126.704 18.6528 127.898 18.6528C129.093 18.6528 130.194 18.9514 131.201 19.5488C132.225 20.1461 133.035 20.9568 133.633 21.9808C134.23 22.9877 134.529 24.08 134.529 25.2576V31.632H132.276V29.9936C131.798 30.5397 131.15 31.0005 130.33 31.376C129.511 31.7344 128.701 31.9136 127.898 31.9136Z" fill="#121316"/>
<path d="M144.539 21.3408H144.155C143.387 21.3408 142.687 21.4858 142.056 21.776C141.424 22.0661 140.921 22.4842 140.545 23.0304C140.187 23.5594 140.008 24.1653 140.008 24.848V31.632H137.755V18.832H140.008V20.5216C140.469 20.0608 141.083 19.6682 141.851 19.344C142.636 19.0026 143.404 18.832 144.155 18.832H144.539V21.3408Z" fill="#121316"/>
<path d="M147.809 18.832L153.159 29.7888L151.111 30.7616L145.3 18.832H147.809ZM158.766 18.832L149.652 38.288H147.143L156.257 18.832H158.766Z" fill="#121316"/>
</g>
<defs>
<linearGradient id="paint0_linear_73_1102" x1="20.3224" y1="14.2156" x2="24.1758" y2="26.9628" gradientUnits="userSpaceOnUse">
<stop stop-color="#D7FFFA"/>
<stop offset="0.4" stop-color="white"/>
<stop offset="1" stop-color="#796BFF"/>
</linearGradient>
<linearGradient id="paint1_linear_73_1102" x1="36.0833" y1="29.8333" x2="19.75" y2="8.74998" gradientUnits="userSpaceOnUse">
<stop offset="0.0317757" stop-color="#46FFE9"/>
<stop offset="0.23459" stop-color="#D7FFFA"/>
<stop offset="1" stop-color="#796BFF"/>
</linearGradient>
<linearGradient id="paint2_linear_73_1102" x1="27.3333" y1="19.6667" x2="24.25" y2="35.75" gradientUnits="userSpaceOnUse">
<stop offset="0.0317757" stop-color="#46FFE9"/>
<stop offset="0.511254" stop-color="#D7FFFA"/>
<stop offset="1" stop-color="#796BFF"/>
</linearGradient>
<linearGradient id="paint3_linear_73_1102" x1="20.3224" y1="14.2156" x2="24.1758" y2="26.9628" gradientUnits="userSpaceOnUse">
<stop stop-color="#D7FFFA"/>
<stop offset="0.4" stop-color="white"/>
<stop offset="1" stop-color="#796BFF"/>
</linearGradient>
<clipPath id="clip0_73_1102">
<rect width="40" height="40" fill="white" transform="translate(4 2)"/>
</clipPath>
<clipPath id="clip1_73_1102">
<rect width="112" height="32" fill="white" transform="translate(48 6)"/>
</clipPath>
</defs>
</svg>
