<svg width="114" height="44" viewBox="0 0 114 44" fill="none" xmlns="http://www.w3.org/2000/svg">
<g clip-path="url(#clip0_89_305)">
<mask id="mask0_89_305" style="mask-type:alpha" maskUnits="userSpaceOnUse" x="14" y="21" width="20" height="11">
<rect x="14.5564" y="21.8459" width="18.9" height="9.45" fill="#D9D9D9"/>
</mask>
<g mask="url(#mask0_89_305)">
<path d="M14.5567 21.8456C19.7757 21.8455 24.0063 17.6148 24.0065 12.3959C24.0067 17.6148 28.2376 21.8456 33.4565 21.8457C28.2375 21.8457 24.0065 26.0766 24.0065 31.2957C24.0065 26.0766 19.7756 21.8459 14.5565 21.8459L14.5567 21.8456Z" fill="url(#paint0_linear_89_305)"/>
</g>
<path d="M23.9927 3.48462C23.9922 3.48878 23.3928 8.40121 18.509 13.2851C16.0938 15.7003 13.4149 17.3237 11.3234 18.3485C14.074 17.7746 17.6427 17.4279 21.5424 17.4279C30.2408 17.4279 37.2922 19.1517 37.2924 21.278C37.2923 23.3095 30.8551 24.9733 22.6946 25.1175C23.1235 25.1227 23.5563 25.1257 23.9925 25.1257C34.6239 25.1257 43.2426 23.5586 43.2426 21.6256C43.2423 20.8516 41.7888 20.3721 39.5202 19.5569C37.1625 18.7097 33.2762 17.0851 29.4762 13.2851C24.5969 8.40577 23.9943 3.49794 23.9927 3.48462Z" fill="url(#paint1_linear_89_305)"/>
<path d="M24.0062 40.5143C24.0067 40.5101 24.6061 35.5977 29.49 30.7138C31.9051 28.2987 34.584 26.6752 36.6756 25.6504C33.9249 26.2243 30.3563 26.571 26.4566 26.571C17.7582 26.571 10.7067 24.8472 10.7066 22.7209C10.7066 20.6894 17.1438 19.0256 25.3043 18.8814C24.8754 18.8762 24.4426 18.8732 24.0065 18.8732C13.375 18.8732 4.75636 20.4403 4.75635 22.3733C4.75658 23.1473 6.2082 23.6322 8.47869 24.442C10.895 25.3038 14.7227 26.9138 18.5227 30.7138C23.4021 35.5931 24.0046 40.501 24.0062 40.5143Z" fill="url(#paint2_linear_89_305)"/>
<mask id="mask1_89_305" style="mask-type:alpha" maskUnits="userSpaceOnUse" x="14" y="12" width="20" height="10">
<rect x="14.5565" y="12.3959" width="18.9" height="9.45" fill="#D9D9D9"/>
</mask>
<g mask="url(#mask1_89_305)">
<path d="M14.5567 21.8456C19.7757 21.8455 24.0063 17.6148 24.0065 12.3959C24.0067 17.6148 28.2376 21.8456 33.4565 21.8457C28.2375 21.8457 24.0065 26.0766 24.0065 31.2957C24.0065 26.0766 19.7756 21.8459 14.5565 21.8459L14.5567 21.8456Z" fill="url(#paint3_linear_89_305)"/>
</g>
</g>
<path d="M54.7189 18.1712C54.7129 23.729 54.5015 29.2021 54.0843 34.5907C54.015 34.8692 53.9148 35.0545 53.7987 35.1707L53.7905 35.1783L53.7834 35.187C53.4771 35.5507 53.1329 35.7153 52.741 35.7153H51.6476C51.7556 35.0195 51.8551 33.7908 51.9475 32.0462C52.0567 29.9853 52.1578 27.1824 52.2505 23.6389V23.6379C52.2919 21.6295 52.3128 19.8071 52.3149 18.1712H54.7189Z" fill="#121316"/>
<path d="M58.8888 10.7153V13.1189H62.5841V15.9639H58.8888V35.7153H55.537V15.9639H51.8417V13.1189H55.537V10.7153H58.8888Z" fill="#121316"/>
<path d="M62.0946 18.1712C62.1037 22.1107 62.3158 27.6706 62.7317 34.8477L62.7338 34.882L62.7384 34.8968C62.7396 34.9068 62.7414 34.9218 62.7435 34.9428C62.748 34.9883 62.7541 35.0547 62.7609 35.1426C62.7716 35.2822 62.7842 35.4731 62.8002 35.7153H61.7175C61.1982 35.7153 60.7887 35.4831 60.4718 34.977C60.3628 34.7705 60.295 34.4477 60.295 33.9822V33.9725L60.2945 33.9628C59.8982 28.6831 59.697 23.4191 59.6905 18.1712H62.0946Z" fill="#121316"/>
<path fill-rule="evenodd" clip-rule="evenodd" d="M77.2832 10.7153V13.7714C77.246 13.8618 77.143 14.0815 76.9593 14.4489C76.7536 14.8601 76.4578 15.4365 76.0728 16.1795L75.5235 17.0849C75.1593 17.6198 74.8133 18.0773 74.4852 18.4583L74.4219 18.5319V18.907H77.4958V22.0166C77.4953 22.0195 77.4945 22.0245 77.4932 22.032C77.4897 22.0514 77.4841 22.0796 77.4758 22.1178C77.4595 22.1938 77.4346 22.3018 77.4007 22.4428C77.3333 22.7233 77.2321 23.1287 77.0967 23.6594C76.2598 26.6375 75.3933 29.0129 74.499 30.7907L74.4382 30.9113L74.5016 31.0309C75.3189 32.5747 76.2434 34.1359 77.2735 35.7153H74.847C74.0111 35.7153 73.3544 35.3638 72.8558 34.6362C72.8014 34.5546 72.7572 34.4899 72.724 34.4446C72.7078 34.4225 72.6908 34.4006 72.6749 34.3823C72.6676 34.3738 72.6549 34.3599 72.6391 34.346C72.6316 34.3393 72.6172 34.3268 72.5972 34.3148C72.5841 34.3069 72.5328 34.2765 72.4598 34.2765H72.3019L72.2283 34.4165C72.1421 34.5801 71.8981 34.8696 71.4588 35.2994C71.0688 35.5786 70.6527 35.7153 70.2034 35.7153H67.478C68.2651 34.6083 69.0038 33.4032 69.6945 32.1003L69.695 32.1008C69.9589 31.639 70.2063 31.1769 70.4374 30.7146L70.4972 30.5945L70.4349 30.4755C69.7938 29.2585 69.1964 28.0527 68.6425 26.8579L68.5719 26.7062H68.1453L68.1274 26.9489C67.986 28.9067 67.8121 30.584 67.6062 31.9818V31.9848C67.5195 32.6187 67.432 33.1343 67.3441 33.5336C67.255 33.9385 67.1695 34.2051 67.0932 34.3531L67.0912 34.3562L67.0897 34.3598C66.8655 34.8284 66.5856 35.164 66.2568 35.3832C65.9293 35.6016 65.5371 35.7153 65.0693 35.7153H63.4169C63.6403 34.8919 63.8626 33.4563 64.0868 31.4289C64.2948 29.6221 64.4856 27.0209 64.6601 23.6292L64.6606 23.6272C64.8242 19.8097 64.9058 16.5629 64.9058 13.8873V13.6094H63.5978V10.7153H77.2832ZM68.503 13.6094V15.4243C68.503 18.2776 68.4592 20.8904 68.3722 23.2629L68.3624 23.5342H70.9167L72.0572 26.093L72.1267 26.2484H72.2963C72.3641 26.2484 72.4138 26.2229 72.4378 26.208C72.4634 26.1921 72.4813 26.175 72.4915 26.1646C72.5116 26.1439 72.526 26.123 72.5339 26.1109C72.5509 26.0849 72.5669 26.0544 72.5809 26.0261C72.61 25.9671 72.6464 25.8838 72.6892 25.7803C72.7755 25.5716 72.8956 25.2614 73.0484 24.8519C73.3459 24.0475 73.6317 23.1398 73.9058 22.1311L73.9957 21.801H70.3342V18.7343C70.9319 17.9686 71.4879 17.1319 72.001 16.2234L72.0015 16.2219C72.4292 15.4542 72.8135 14.7077 73.1542 13.9824L73.3294 13.6094H68.503Z" fill="#121316"/>
<path fill-rule="evenodd" clip-rule="evenodd" d="M105.602 11.1404V31.7585C105.602 32.8685 105.18 33.7581 104.326 34.4492L104.323 34.4512C103.733 34.9416 103.004 35.1921 102.12 35.1921H82.3355V14.5577C82.3355 13.3792 82.8166 12.4427 83.7974 11.7275C84.345 11.3402 85.0194 11.1404 85.8346 11.1404H105.602ZM88.5324 14.0508C88.0123 14.0508 87.5758 14.2967 87.2305 14.7406L87.2233 14.7498C87.0139 15.0455 86.8973 15.3589 86.8973 15.6859V18.1875H99.569V21.0979H86.8973V25.2346H99.569V28.145H86.8973V32.2817H99.3892C99.9085 32.2817 100.349 32.0368 100.705 31.5955L100.712 31.5863L100.719 31.5766C100.916 31.2808 101.024 30.9696 101.024 30.6467V14.0508H88.5324Z" fill="#121316"/>
<defs>
<linearGradient id="paint0_linear_89_305" x1="20.3225" y1="14.2156" x2="24.1758" y2="26.9628" gradientUnits="userSpaceOnUse">
<stop stop-color="#D7FFFA"/>
<stop offset="0.4" stop-color="white"/>
<stop offset="1" stop-color="#796BFF"/>
</linearGradient>
<linearGradient id="paint1_linear_89_305" x1="36.0833" y1="29.8333" x2="19.75" y2="8.74998" gradientUnits="userSpaceOnUse">
<stop offset="0.0317757" stop-color="#46FFE9"/>
<stop offset="0.23459" stop-color="#D7FFFA"/>
<stop offset="1" stop-color="#796BFF"/>
</linearGradient>
<linearGradient id="paint2_linear_89_305" x1="27.3333" y1="19.6667" x2="24.25" y2="35.75" gradientUnits="userSpaceOnUse">
<stop offset="0.0317757" stop-color="#46FFE9"/>
<stop offset="0.511254" stop-color="#D7FFFA"/>
<stop offset="1" stop-color="#796BFF"/>
</linearGradient>
<linearGradient id="paint3_linear_89_305" x1="20.3225" y1="14.2156" x2="24.1758" y2="26.9628" gradientUnits="userSpaceOnUse">
<stop stop-color="#D7FFFA"/>
<stop offset="0.4" stop-color="white"/>
<stop offset="1" stop-color="#796BFF"/>
</linearGradient>
<clipPath id="clip0_89_305">
<rect width="40" height="40" fill="white" transform="translate(4 2)"/>
</clipPath>
</defs>
</svg>
